<svg xmlns="http://www.w3.org/2000/svg" xmlns:xlink="http://www.w3.org/1999/xlink" version="1.1" x="0px" y="0px" viewBox="0 0 100 125" style="enable-background:new 0 0 100 100;" xml:space="preserve"><g><path d="M48.79,22.68c-0.01,0.05-0.01,0.12-0.01,0.2c0.38-0.08,0.77-0.13,1.18-0.13c1,0,1.94,0.28,2.74,0.75   c0.59-0.84,2.71-3.98,3.01-6.22c0.02-0.14-0.03-0.29-0.14-0.38c-1.11-1.01-5.87-1.84-7.75-1.21c-0.13,0.04-0.19,0.18-0.14,0.3   C48.14,17.14,49.13,19.93,48.79,22.68z"/><path d="M53.24,23.87c1.09,0.84,1.84,2.08,2.05,3.5c1.24-0.05,4.74-0.29,6.6-1.34c0.12-0.07,0.21-0.2,0.22-0.34   c0.14-1.49-2.07-5.79-3.71-6.91c-0.11-0.07-0.26-0.05-0.32,0.07c-0.64,1.07-2.27,3.54-4.67,4.92   C53.37,23.78,53.31,23.82,53.24,23.87z"/><circle cx="49.95" cy="28.15" r="4.7"/><path d="M39.18,22.38c1.19,0.36,3.99,1.32,5.92,3.31c0.01,0.01,0.02,0.02,0.03,0.03c0.62-1.24,1.71-2.2,3.03-2.66   c-0.32-1.1-1.43-4.56-2.95-6.14c-0.1-0.1-0.24-0.16-0.38-0.13c-1.48,0.23-5.1,3.43-5.78,5.3C38.99,22.21,39.06,22.34,39.18,22.38z"/><path d="M38.65,32.98c0.07,0.11,0.22,0.14,0.32,0.07c0.98-0.7,3.33-2.26,5.99-2.64c0.1,0.23,0.22,0.45,0.35,0.67   c-1.28,0.65-4.03,2.18-5.21,3.77c-0.09,0.12-0.11,0.27-0.07,0.4c0.48,1.42,4.24,4.45,6.2,4.81c0.13,0.02,0.25-0.06,0.27-0.19   c0.15-1.22,0.62-4.08,2.21-6.31c0.24,0.06,0.49,0.1,0.74,0.12c-0.18,1.15-0.64,4.73,0.05,6.8c0.05,0.14,0.15,0.24,0.29,0.28   c1.44,0.42,6.08-0.93,7.49-2.32c0.09-0.09,0.09-0.24,0-0.33c-0.92-0.83-3.04-2.9-3.94-5.52c-0.01-0.02-0.02-0.04-0.03-0.07   c0.18-0.15,0.36-0.31,0.52-0.48c0.94,1.03,3.19,3.36,5.07,4.08c0.13,0.05,0.29,0.04,0.41-0.04c1.24-0.84,3.17-5.27,2.99-7.25   c-0.01-0.13-0.13-0.23-0.26-0.21c-1.22,0.18-4.12,0.48-6.69-0.47c0,0,0,0,0,0.01c0,2.98-2.42,5.4-5.4,5.4c-2.98,0-5.4-2.42-5.4-5.4   c0-0.65,0.12-1.27,0.33-1.85c-1.17-0.45-4.46-1.59-6.57-1.36c-0.14,0.02-0.27,0.1-0.34,0.22C37.26,26.48,37.59,31.3,38.65,32.98z"/><path d="M37.53,14.27c0.18-0.16,0.19-0.44,0.03-0.62c-0.16-0.18-0.44-0.19-0.62-0.03s-0.19,0.44-0.03,0.62   C37.08,14.42,37.35,14.44,37.53,14.27z"/><path d="M63.03,14.24c0.16-0.18,0.15-0.46-0.03-0.62s-0.46-0.15-0.62,0.03c-0.16,0.18-0.15,0.46,0.03,0.62S62.87,14.42,63.03,14.24   z"/><path d="M62.39,41.48c-0.18,0.16-0.19,0.44-0.03,0.62c0.16,0.18,0.44,0.19,0.62,0.03c0.18-0.16,0.19-0.44,0.03-0.62   C62.85,41.33,62.57,41.31,62.39,41.48z"/><path d="M36.71,36.45l-0.48,0.53c0.25,1.98-0.96,4.39-0.96,4.39s-0.26,2.55,2.55,2.31c2.93-1.6,4.3-1.37,4.3-1.37l0.43-0.48   c2.22,1.19,4.76,1.86,7.45,1.86c2.67,0,5.18-0.66,7.38-1.83l0.4,0.45c0,0,1.37-0.23,4.3,1.37c2.8,0.25,2.55-2.31,2.55-2.31   s-1.21-2.41-0.96-4.39l-0.42-0.47c1.63-2.49,2.57-5.45,2.57-8.65c0-3.18-0.94-6.14-2.56-8.62l0.43-0.47   c-0.25-1.98,0.96-4.39,0.96-4.39s0.26-2.55-2.55-2.31c-2.93,1.6-4.3,1.37-4.3,1.37l-0.4,0.44c-2.21-1.17-4.73-1.84-7.41-1.84   c-2.69,0-5.23,0.67-7.45,1.86l-0.42-0.46c0,0-1.37,0.23-4.3-1.37c-2.8-0.25-2.55,2.31-2.55,2.31s1.21,2.41,0.96,4.39l0.46,0.51   c-1.6,2.47-2.54,5.42-2.54,8.59C34.18,31.03,35.11,33.98,36.71,36.45z M39.57,42.15c-0.45,0.15-1,0.38-1.66,0.74   c-2.04,0.18-1.85-1.68-1.85-1.68s0.38-0.76,0.58-1.7c0.09-0.41,0.61-0.51,0.86-0.17c0.68,0.94,1.48,1.56,2.16,1.95   C40,41.49,39.95,42.02,39.57,42.15z M63.26,39.51c0.21,0.95,0.58,1.7,0.58,1.7s0.19,1.86-1.85,1.68c-0.66-0.36-1.21-0.59-1.66-0.74   c-0.38-0.13-0.44-0.65-0.09-0.86c0.67-0.39,1.48-1.01,2.16-1.95C62.65,39,63.17,39.1,63.26,39.51z M60.36,13.6   c0.45-0.15,1-0.38,1.66-0.74c2.04-0.18,1.85,1.68,1.85,1.68s-0.38,0.76-0.58,1.7c-0.09,0.41-0.61,0.51-0.86,0.17   c-0.68-0.94-1.48-1.56-2.16-1.95C59.92,14.26,59.98,13.73,60.36,13.6z M36.66,16.24c-0.21-0.95-0.58-1.7-0.58-1.7   s-0.19-1.86,1.85-1.68c0.66,0.36,1.21,0.59,1.66,0.74c0.38,0.13,0.44,0.65,0.09,0.86c-0.67,0.39-1.48,1.01-2.16,1.95   C37.27,16.75,36.75,16.65,36.66,16.24z M49.95,14.74c7.41,0,13.41,6.01,13.41,13.41c0,7.41-6.01,13.41-13.41,13.41   s-13.41-6-13.41-13.41C36.54,20.74,42.55,14.74,49.95,14.74z"/><path d="M36.89,41.51c-0.16,0.18-0.15,0.46,0.03,0.62c0.18,0.16,0.46,0.15,0.62-0.03c0.16-0.18,0.15-0.46-0.03-0.62   C37.33,41.31,37.06,41.33,36.89,41.51z"/><path d="M48.69,55.46c-0.01,0.05-0.01,0.12-0.01,0.2c0.38-0.08,0.77-0.13,1.18-0.13c1,0,1.94,0.28,2.74,0.75   c0.59-0.84,2.71-3.98,3.01-6.22c0.02-0.14-0.03-0.29-0.14-0.38c-1.11-1.01-5.87-1.84-7.75-1.21c-0.13,0.04-0.19,0.18-0.14,0.3   C48.05,49.92,49.04,52.71,48.69,55.46z"/><path d="M53.15,56.65c1.09,0.84,1.84,2.08,2.05,3.5c1.24-0.05,4.74-0.29,6.6-1.34c0.12-0.07,0.21-0.2,0.22-0.34   c0.14-1.49-2.07-5.79-3.71-6.91c-0.11-0.07-0.26-0.05-0.32,0.07c-0.64,1.07-2.27,3.54-4.67,4.92   C53.27,56.57,53.21,56.61,53.15,56.65z"/><circle cx="49.86" cy="60.93" r="4.7"/><path d="M39.09,55.16c1.19,0.36,3.99,1.32,5.92,3.31c0.01,0.01,0.02,0.02,0.03,0.03c0.62-1.24,1.71-2.2,3.03-2.66   c-0.32-1.1-1.43-4.56-2.95-6.14c-0.1-0.1-0.24-0.16-0.38-0.13c-1.48,0.23-5.1,3.43-5.78,5.3C38.9,54.99,38.96,55.13,39.09,55.16z"/><path d="M46.14,72.84c0.13,0.02,0.25-0.06,0.27-0.19c0.15-1.22,0.62-4.08,2.21-6.31c0.24,0.06,0.49,0.1,0.74,0.12   c-0.18,1.15-0.64,4.73,0.05,6.8c0.05,0.14,0.15,0.24,0.29,0.28c1.44,0.42,6.08-0.93,7.49-2.32c0.09-0.09,0.09-0.24,0-0.33   c-0.92-0.83-3.04-2.9-3.94-5.52c-0.01-0.02-0.02-0.04-0.03-0.07c0.18-0.15,0.36-0.31,0.52-0.48c0.94,1.03,3.19,3.36,5.07,4.08   c0.13,0.05,0.29,0.04,0.41-0.04c1.24-0.84,3.17-5.27,2.99-7.25c-0.01-0.13-0.13-0.23-0.26-0.21c-1.22,0.18-4.12,0.48-6.69-0.47   c0,0,0,0,0,0.01c0,2.98-2.42,5.4-5.4,5.4c-2.98,0-5.4-2.42-5.4-5.4c0-0.65,0.12-1.27,0.33-1.85c-1.17-0.45-4.46-1.59-6.57-1.36   c-0.14,0.02-0.27,0.1-0.34,0.22c-0.72,1.32-0.39,6.14,0.68,7.82c0.07,0.11,0.22,0.14,0.32,0.07c0.98-0.7,3.33-2.26,5.99-2.64   c0.1,0.23,0.22,0.45,0.35,0.67c-1.28,0.65-4.03,2.18-5.21,3.77c-0.09,0.12-0.11,0.27-0.07,0.4C40.42,69.45,44.19,72.48,46.14,72.84   z"/><path d="M37.44,47.06c0.18-0.16,0.19-0.44,0.03-0.62c-0.16-0.18-0.44-0.19-0.62-0.03c-0.18,0.16-0.19,0.44-0.03,0.62   C36.98,47.21,37.26,47.22,37.44,47.06z"/><path d="M62.94,47.03c0.16-0.18,0.15-0.46-0.03-0.62c-0.18-0.16-0.46-0.15-0.62,0.03c-0.16,0.18-0.15,0.46,0.03,0.62   S62.78,47.21,62.94,47.03z"/><path d="M62.3,74.26c-0.18,0.16-0.19,0.44-0.03,0.62c0.16,0.18,0.44,0.19,0.62,0.03c0.18-0.16,0.19-0.44,0.03-0.62   C62.76,74.11,62.48,74.1,62.3,74.26z"/><path d="M36.14,69.76c0.25,1.98-0.96,4.39-0.96,4.39s-0.26,2.55,2.55,2.31c2.93-1.6,4.3-1.37,4.3-1.37l0.43-0.48   c2.22,1.19,4.76,1.86,7.45,1.86c2.67,0,5.18-0.66,7.38-1.83l0.4,0.45c0,0,1.37-0.23,4.3,1.37c2.8,0.25,2.55-2.31,2.55-2.31   s-1.21-2.41-0.96-4.39l-0.42-0.47c1.63-2.49,2.57-5.45,2.57-8.65c0-3.18-0.94-6.14-2.56-8.62l0.43-0.47   c-0.25-1.98,0.96-4.39,0.96-4.39s0.26-2.55-2.55-2.31c-2.93,1.6-4.3,1.37-4.3,1.37l-0.4,0.44c-2.21-1.17-4.73-1.84-7.41-1.84   c-2.69,0-5.23,0.67-7.45,1.86l-0.42-0.46c0,0-1.37,0.23-4.3-1.37c-2.8-0.25-2.55,2.31-2.55,2.31s1.21,2.41,0.96,4.39l0.46,0.51   c-1.6,2.47-2.54,5.42-2.54,8.59c0,3.17,0.93,6.11,2.53,8.59L36.14,69.76z M39.47,74.93c-0.45,0.15-1,0.38-1.66,0.74   C35.78,75.85,35.96,74,35.96,74s0.38-0.76,0.58-1.7c0.09-0.41,0.61-0.51,0.86-0.17c0.68,0.94,1.48,1.56,2.16,1.95   C39.91,74.28,39.85,74.8,39.47,74.93z M63.17,72.29c0.21,0.95,0.58,1.7,0.58,1.7s0.19,1.86-1.85,1.68   c-0.66-0.36-1.21-0.59-1.66-0.74c-0.38-0.13-0.44-0.65-0.09-0.86c0.67-0.39,1.48-1.01,2.16-1.95   C62.56,71.78,63.08,71.89,63.17,72.29z M60.26,46.39c0.45-0.15,1-0.38,1.66-0.74c2.04-0.18,1.85,1.68,1.85,1.68   s-0.38,0.76-0.58,1.7c-0.09,0.41-0.61,0.51-0.86,0.17c-0.68-0.94-1.48-1.56-2.16-1.95C59.83,47.04,59.88,46.51,60.26,46.39z    M36.57,49.02c-0.21-0.95-0.58-1.7-0.58-1.7s-0.19-1.86,1.85-1.68c0.66,0.36,1.21,0.59,1.66,0.74c0.38,0.13,0.44,0.65,0.09,0.86   c-0.67,0.39-1.48,1.01-2.16,1.95C37.18,49.54,36.66,49.43,36.57,49.02z M36.45,60.93c0-7.41,6-13.41,13.41-13.41   s13.41,6.01,13.41,13.41c0,7.41-6.01,13.41-13.41,13.41S36.45,68.34,36.45,60.93z"/><path d="M36.8,74.29c-0.16,0.18-0.15,0.46,0.03,0.62c0.18,0.16,0.46,0.15,0.62-0.03c0.16-0.18,0.15-0.46-0.03-0.62   C37.24,74.1,36.96,74.11,36.8,74.29z"/><path d="M74.06,6.38H25.94c-0.42,0-0.76,0.34-0.76,0.76v83.65c0,0.42,0.34,0.76,0.76,0.76h2.84v1.71c0,0.2,0.16,0.36,0.36,0.36   h3.42c0.2,0,0.36-0.16,0.36-0.36v-1.71h34.85v1.71c0,0.2,0.16,0.36,0.36,0.36h3.42c0.2,0,0.36-0.16,0.36-0.36v-1.71h2.15   c0.42,0,0.76-0.34,0.76-0.76V7.14C74.82,6.72,74.48,6.38,74.06,6.38z M28.09,10.28c0-0.42,0.34-0.76,0.76-0.76h42.31   c0.42,0,0.76,0.34,0.76,0.76v67.82c0,0.42-0.34,0.76-0.76,0.76H28.84c-0.42,0-0.76-0.34-0.76-0.76V10.28z M73.31,83.92H26.69v-1.87   h46.63V83.92z"/></g><text x="0" y="115" fill="#000000" font-size="5px" font-weight="bold" font-family="'Helvetica Neue', Helvetica, Arial-Unicode, Arial, Sans-serif">by VectorCorner - Icons by EnzoP</text><text x="0" y="120" fill="#000000" font-size="5px" font-weight="bold" font-family="'Helvetica Neue', Helvetica, Arial-Unicode, Arial, Sans-serif">from the Noun Project</text></svg>