<svg xmlns="http://www.w3.org/2000/svg" data-name="Layer 1" viewBox="0 0 512 640" x="0px" y="0px"><path d="M143.70166,206.74561c18.90308-4.54395,40.66162-3.72925,60.71289.6267a6.02166,6.02166,0,0,0,6.69775-3.45434,48.97461,48.97461,0,0,1,4.21119-7.28955,6.023,6.023,0,0,0,.2102-6.5874c-12.6831-20.87769-30.45557-37.60889-47.39892-44.16211a6.01168,6.01168,0,0,0-6.80225,1.89257,121.54723,121.54723,0,0,0-24.83325,51.93018A5.97837,5.97837,0,0,0,143.70166,206.74561Z"/><path d="M207.18457,248.96143a5.89038,5.89038,0,0,0,2.26245-7.03882,48.63435,48.63435,0,0,1-2.22168-8.26636,5.93054,5.93054,0,0,0-4.37866-4.77051c-23.74731-5.81054-48.22168-5.07275-64.86108,2.26319a6.00657,6.00657,0,0,0-3.48047,6.13378,121.47405,121.47405,0,0,0,19.15258,54.28516,5.98409,5.98409,0,0,0,10.094-.0918C173.90869,274.87891,189.88623,260.04858,207.18457,248.96143Z"/><path d="M322.55591,317.15747c-16.60767-10.15942-31.43091-26.14917-42.531-43.43848a5.89606,5.89606,0,0,0-7.043-2.26074,48.59184,48.59184,0,0,1-8.26269,2.22095,5.93073,5.93073,0,0,0-4.77173,4.3833c-5.79565,23.75952-5.05689,48.22021,2.27881,64.87109a6.006,6.006,0,0,0,6.13745,3.48169,121.53141,121.53141,0,0,0,54.28589-19.16455A5.98417,5.98417,0,0,0,322.55591,317.15747Z"/><path d="M368.293,243.0896a117.64256,117.64256,0,0,1-27.43652,3.061,156.6323,156.6323,0,0,1-33.27295-3.70239,6.0157,6.0157,0,0,0-6.70313,3.44678,48.93428,48.93428,0,0,1-4.21728,7.30713,6.02306,6.02306,0,0,0-.21094,6.58887c12.68286,20.87353,30.46557,37.60205,47.394,44.17041a6.0111,6.0111,0,0,0,6.80713-1.89014,121.54743,121.54743,0,0,0,24.84741-51.93921A5.9785,5.9785,0,0,0,368.293,243.0896Z"/><path d="M358.343,158.27686a5.98415,5.98415,0,0,0-10.09326.09082c-10.16065,16.59594-26.15039,31.41894-43.43946,42.53076a5.89219,5.89219,0,0,0-2.2561,7.03955,48.4756,48.4756,0,0,1,2.22119,8.24975,5.93059,5.93059,0,0,0,4.38159,4.77051c23.74829,5.79737,48.22339,5.07154,64.86206-2.27783a6.00646,6.00646,0,0,0,3.477-6.13257A121.47077,121.47077,0,0,0,358.343,158.27686Z"/><path d="M189.45386,132.67236c16.59424,10.14771,31.41406,26.12647,42.51147,43.426a5.89582,5.89582,0,0,0,7.032,2.26758,49.35681,49.35681,0,0,1,8.2544-2.21118,5.93091,5.93091,0,0,0,4.76538-4.37891c5.81519-23.76489,5.09131-48.23206-2.259-64.87158a6.00668,6.00668,0,0,0-6.13257-3.47681,121.46807,121.46807,0,0,0-54.26538,19.14966A5.98414,5.98414,0,0,0,189.45386,132.67236Z"/><path d="M276.97266,180.02441a49.3064,49.3064,0,0,1,7.30883,4.21021,6.02246,6.02246,0,0,0,6.57935.20605c20.86426-12.66821,37.62158-30.45092,44.18091-47.38061a6.01126,6.01126,0,0,0-1.89331-6.80567,121.75017,121.75017,0,0,0-51.93457-24.84375,5.97834,5.97834,0,0,0-7.0459,7.20472c4.552,18.901,3.73437,40.65564-.64649,60.704A6.02057,6.02057,0,0,0,276.97266,180.02441Z"/><path d="M235.01367,269.793a48.95693,48.95693,0,0,1-7.28906-4.21118,6.02333,6.02333,0,0,0-6.58765-.21c-20.87842,12.68383-37.62353,30.46923-44.17944,47.40014a6.01128,6.01128,0,0,0,1.89014,6.80225A121.51754,121.51754,0,0,0,230.77075,344.417a5.97809,5.97809,0,0,0,7.04566-7.2041c-4.55371-18.91211-3.73584-40.66162.64624-60.72388A6.01442,6.01442,0,0,0,235.01367,269.793Z"/><path d="M289.68262,224.91748a33.68506,33.68506,0,1,0-33.68457,33.68506A33.72241,33.72241,0,0,0,289.68262,224.91748Zm-26.4563-16.05933a30.32007,30.32007,0,0,0-25.97656,24.61719q-.04286.23658-.0813.47266a18.0163,18.0163,0,0,0,2.10083,11.739,26.67537,26.67537,0,1,1,40.69287-32.49414,17.79115,17.79115,0,0,0-10.11719-4.42236A30.70212,30.70212,0,0,0,263.22632,208.85815Z"/><path d="M108.88672,57.645a19.0459,19.0459,0,1,0,19.04492,19.0459A19.06746,19.06746,0,0,0,108.88672,57.645Zm6.27783,12.28809q-.505.05016-1.01636.13391a15.63868,15.63868,0,0,0-12.5227,11.58813q-.03369.13532-.06494.27039a8.25249,8.25249,0,0,0,.21777,4.4685,12.03262,12.03262,0,1,1,17.48975-15.78161A7.99118,7.99118,0,0,0,115.16455,69.93311Z"/><path d="M403.11523,57.645a19.0459,19.0459,0,1,0,19.0459,19.0459A19.06745,19.06745,0,0,0,403.11523,57.645Zm6.27808,12.28809q-.505.05016-1.01636.13391a15.63835,15.63835,0,0,0-12.5227,11.58813q-.03369.13532-.06494.27039a8.25333,8.25333,0,0,0,.21777,4.46875A12.03291,12.03291,0,1,1,413.4978,70.61292,7.99073,7.99073,0,0,0,409.39331,69.93311Z"/><path d="M108.88672,354.10645a19.04565,19.04565,0,1,0,19.04492,19.04589A19.06746,19.06746,0,0,0,108.88672,354.10645Zm6.27783,12.28784q-.505.05016-1.01636.134a15.63841,15.63841,0,0,0-12.5227,11.58789q-.03369.13549-.06494.27051a8.25162,8.25162,0,0,0,.21777,4.46826,12.0325,12.0325,0,1,1,17.48975-15.78149A7.9899,7.9899,0,0,0,115.16455,366.39429Z"/><path d="M384.06934,373.15234a19.0459,19.0459,0,1,0,19.04589-19.04589A19.06735,19.06735,0,0,0,384.06934,373.15234Zm29.42822-6.07837a7.99033,7.99033,0,0,0-4.10425-.67968q-.505.05016-1.01636.134a15.63808,15.63808,0,0,0-12.5227,11.58789q-.03369.13549-.06494.27051a8.25249,8.25249,0,0,0,.21777,4.4685A12.03271,12.03271,0,1,1,413.49756,367.074Z"/><path d="M479.9707,73.19092H442.35059V55.9165a17.365,17.365,0,0,0-17.34473-17.34521h-88.416V26.169A6.67622,6.67622,0,0,1,343.25879,19.5h48.63379a6.67621,6.67621,0,0,1,6.66894,6.66895,3.5,3.5,0,0,0,7,0A13.68439,13.68439,0,0,0,391.89258,12.5H343.25879a13.6844,13.6844,0,0,0-13.66895,13.669V38.57129H182.41113V26.169A13.68439,13.68439,0,0,0,168.74219,12.5H120.1084a13.6844,13.6844,0,0,0-13.669,13.669V38.57129H86.99512A17.365,17.365,0,0,0,69.65039,55.9165V73.19092H32.0293A19.55133,19.55133,0,0,0,12.5,92.72021V357.12305a19.55133,19.55133,0,0,0,19.5293,19.52929H69.65039v17.27442a17.36462,17.36462,0,0,0,17.34473,17.34472H99.57324l16.957,44.53711a47.87471,47.87471,0,0,0,44.499,30.67334h13.72754v1.22168A11.80984,11.80984,0,0,0,186.55273,499.5H325.44824a11.81006,11.81006,0,0,0,11.79688-11.79639v-1.22168h13.72656a47.8747,47.8747,0,0,0,44.499-30.67334l16.957-44.53711h12.57813a17.36462,17.36462,0,0,0,17.34473-17.34472V376.65234H479.9707A19.55133,19.55133,0,0,0,499.5,357.12305V92.72021A19.55133,19.55133,0,0,0,479.9707,73.19092ZM69.65039,369.65234H32.0293A12.54378,12.54378,0,0,1,19.5,357.12305V342.335H69.65039Zm0-34.31738H19.5V309.78809H69.65039Zm0-32.54687H19.5V277.2417H69.65039Zm0-32.54639H19.5V244.69482H69.65039Zm0-32.54688H19.5V212.14844H69.65039Zm0-32.54638H19.5V179.60156H69.65039Zm0-32.54688H19.5V147.05469H69.65039Zm0-32.54687H19.5V114.5083H69.65039Zm0-32.54639H19.5V92.72021A12.54378,12.54378,0,0,1,32.0293,80.19092H69.65039ZM113.43945,26.169A6.67622,6.67622,0,0,1,120.1084,19.5h48.63379a6.67621,6.67621,0,0,1,6.66894,6.66895V38.57129H113.43945Zm61.31739,453.313H161.0293a40.838,40.838,0,0,1-37.958-26.16455l-16.00855-42.0459h25.6355l11.83692,31.08887a20.5467,20.5467,0,0,0,19.09765,13.16358h11.124Zm155.48828,8.22168A4.80251,4.80251,0,0,1,325.44824,492.5H186.55273a4.80166,4.80166,0,0,1-4.79589-4.79639V447.29932a4.80166,4.80166,0,0,1,4.79589-4.79639H325.44824a4.80251,4.80251,0,0,1,4.79688,4.79639Zm105.10547-93.77685a10.35644,10.35644,0,0,1-10.34473,10.34472H165.002a3.5,3.5,0,1,0,0,7H404.93823l-16.00854,42.0459a40.838,40.838,0,0,1-37.958,26.16455H337.24512v-23.958h11.123a20.54671,20.54671,0,0,0,19.09766-13.16358l5.42383-14.24463a3.49968,3.49968,0,1,0-6.541-2.49121l-5.42383,14.24463a13.51,13.51,0,0,1-12.55664,8.65479h-11.123v-1.22461a11.81006,11.81006,0,0,0-11.79688-11.79639H186.55273a11.80984,11.80984,0,0,0-11.79589,11.79639v1.22461h-11.124a13.51,13.51,0,0,1-12.55664-8.65479l-10.88843-28.59766h6.9148a3.5,3.5,0,0,0,0-7H86.99512a10.35644,10.35644,0,0,1-10.34473-10.34472V297.59082h27.21387a10.09991,10.09991,0,0,0,9.07129-5.59473l9.90307-19.71533A141.52164,141.52164,0,0,0,256,366.18359h.124a142.02573,142.02573,0,0,0,133.00147-93.978l9.94092,19.791a10.10033,10.10033,0,0,0,9.07129,5.59424h27.21289Zm0-103.33594H408.1377a3.13516,3.13516,0,0,1-2.81543-1.73633l-13.16895-26.217a140.64632,140.64632,0,0,0,5.06348-34.06909,142.78189,142.78189,0,0,0-2.1709-28.70752,3.50016,3.50016,0,1,0-6.89063,1.23437,135.7412,135.7412,0,0,1,2.06348,27.29688,134.6445,134.6445,0,0,1-134.10059,130.7915H256A134.26173,134.26173,0,1,1,382.89453,180.97314a6.49552,6.49552,0,0,0,11.94043.80469l10.48145-20.79248a3.13625,3.13625,0,0,1,2.81445-1.73291h27.21973Zm0-138.33838H408.13086a10.10015,10.10015,0,0,0-9.06445,5.58154l-9.94825,19.73487A141.56579,141.56579,0,0,0,257.2373,83.665c-.41308-.00342-.82324-.00537-1.23535-.00537a141.69574,141.69574,0,0,0-141.26367,141.2334,141.99033,141.99033,0,0,0,5.08032,37.8042L106.67969,288.854a3.13475,3.13475,0,0,1-2.81543,1.73682H76.65039V159.25244h27.21973a3.13626,3.13626,0,0,1,2.81445,1.73291l2.13184,4.229a3.49977,3.49977,0,1,0,6.25-3.15137l-2.13184-4.229a10.10015,10.10015,0,0,0-9.06445-5.58154H76.65039V55.9165A10.35655,10.35655,0,0,1,86.99512,45.57129H425.00586A10.35655,10.35655,0,0,1,435.35059,55.9165ZM492.5,357.12305a12.54378,12.54378,0,0,1-12.5293,12.52929H442.35059V342.335H492.5Zm0-21.78809H442.35059V309.78809H492.5Zm0-32.54687H442.35059V277.2417H492.5Zm0-32.54639H442.35059V244.69482H492.5Zm0-32.54688H442.35059V212.14844H492.5Zm0-32.54638H442.35059V179.60156H492.5Zm0-32.54688H442.35059V147.05469H492.5Zm0-32.54687H442.35059V114.5083H492.5Zm0-32.54639H442.35059V80.19092H479.9707A12.54378,12.54378,0,0,1,492.5,92.72021Z"/><text x="0" y="527" fill="#000000" font-size="5px" font-weight="bold" font-family="'Helvetica Neue', Helvetica, Arial-Unicode, Arial, Sans-serif">Created by iconfield</text><text x="0" y="532" fill="#000000" font-size="5px" font-weight="bold" font-family="'Helvetica Neue', Helvetica, Arial-Unicode, Arial, Sans-serif">from the Noun Project</text></svg>