<svg xmlns="http://www.w3.org/2000/svg" version="1.1" viewBox="-5.0 -10.0 110.0 135.0">
 <path d="m50 53.516c2.6484-0.070313 2.6523-3.9531 0-4.0195-2.6484 0.070312-2.6484 3.9531 0 4.0195z"/>
 <path d="m66.672 66.559c0 0.55078-0.44922 1-1 1h-26.855c-0.36328 1.4023-1.4648 2.5-2.8672 2.8633v7.1758h34.688c3.8398 0 6.9609-3.125 6.9609-6.9609v-18.129h-10.93v14.051z"/>
 <path d="m52.012 31.938c-0.070313-2.6484-3.9492-2.6523-4.0195 0 0.070312 2.6484 3.9492 2.6523 4.0195 0z"/>
 <path d="m34.949 64.547c-2.6523 0.070313-2.6523 3.9531 0 4.0195 2.6523-0.070312 2.6523-3.9531 0-4.0195z"/>
 <path d="m34.949 52.012c2.6523-0.070313 2.6523-3.9492 0-4.0195-2.6484 0.070312-2.6523 3.9492 0 4.0195z"/>
 <path d="m30.938 66.559c0.0625-4.6914 6.6836-5.4922 7.8789-0.99609h25.852v-13.051h-10.805c-0.44922 1.7227-2.0039 3.0078-3.8672 3.0078-4.6914-0.0625-5.4922-6.6797-1-7.8789v-11.828c-1.4023-0.36328-2.5039-1.4648-2.8672-2.8672h-11.184c-0.55078 0-1-0.44922-1-1v-9.5391h-4.5859c-3.8398 0-6.9609 3.125-6.9609 6.9609v10.246h12.551c0.55078 0 1 0.44922 1 1v5.5234c4.4883 1.1992 3.6875 7.8164-1.0039 7.8789-4.6914-0.0625-5.4922-6.6836-0.99609-7.8789v-4.5195h-11.551v29.027c0 3.8398 3.125 6.9609 6.9609 6.9609h4.5859v-7.1719c-1.7266-0.44531-3.0117-2.0039-3.0117-3.8711z"/>
 <path d="m79.809 13.031h-59.617c-3.9492 0-7.1602 3.2109-7.1602 7.1602v59.617c0 3.9492 3.2109 7.1602 7.1602 7.1602h59.617c3.9492 0 7.1602-3.2109 7.1602-7.1602v-59.617c0-3.9492-3.2109-7.1602-7.1602-7.1602zm-60.809 68.969c-1.3125-0.023438-1.3125-1.9766 0-2 1.3125 0.023438 1.3125 1.9766 0 2zm0-62c-1.3125-0.023438-1.3125-1.9766 0-2 1.3125 0.023438 1.3125 1.9766 0 2zm60.598 50.637c0 4.9414-4.0195 8.9609-8.9609 8.9609h-41.273c-4.9414 0-8.9609-4.0195-8.9609-8.9609v-41.273c0-4.9414 4.0195-8.9609 8.9609-8.9609h41.273c4.9414 0 8.9609 4.0195 8.9609 8.9609v22.141c-0.003906 0.007813 0.003906 19.125 0 19.133zm1.4023 11.363c-1.3125-0.023438-1.3125-1.9766 0-2 1.3125 0.023438 1.3125 1.9766 0 2zm0-62c-1.3125-0.023438-1.3125-1.9766 0-2 1.3125 0.023438 1.3125 1.9766 0 2z"/>
 <path d="m65.051 42.98c2.6562-0.070313 2.6484-3.9609-0.007812-4.0195-2.6445 0.078124-2.6406 3.9492 0.007812 4.0195z"/>
 <path d="m70.637 22.402h-4.5859v14.699c4.4922 1.1953 3.6953 7.8164-0.99609 7.8789-4.6914-0.0625-5.4922-6.6797-1.0039-7.8789v-14.699h-28.102v8.5391h10.18c0.44531-1.7266 2.0039-3.0117 3.8672-3.0117 4.6914 0.0625 5.4922 6.6797 1 7.8789v11.828c1.4062 0.36328 2.5078 1.4688 2.8711 2.875h23.73v-21.145c0-3.8398-3.125-6.9609-6.9609-6.9609z"/>
 <path d="m44.781 6h2v5.0312h-2z"/>
 <path d="m53.219 6h2v5.0312h-2z"/>
 <path d="m61.656 6h2v5.0312h-2z"/>
 <path d="m70.094 6h2v5.0312h-2z"/>
 <path d="m36.344 6h2v5.0312h-2z"/>
 <path d="m27.906 6h2v5.0312h-2z"/>
 <path d="m44.781 88.969h2v5.0312h-2z"/>
 <path d="m53.219 88.969h2v5.0312h-2z"/>
 <path d="m61.656 88.969h2v5.0312h-2z"/>
 <path d="m70.094 88.969h2v5.0312h-2z"/>
 <path d="m36.344 88.969h2v5.0312h-2z"/>
 <path d="m27.906 88.969h2v5.0312h-2z"/>
 <path d="m88.969 44.781h5.0312v2h-5.0312z"/>
 <path d="m88.969 53.219h5.0312v2h-5.0312z"/>
 <path d="m88.969 61.656h5.0312v2h-5.0312z"/>
 <path d="m88.969 70.094h5.0312v2h-5.0312z"/>
 <path d="m88.969 36.344h5.0312v2h-5.0312z"/>
 <path d="m88.969 27.906h5.0312v2h-5.0312z"/>
 <path d="m6 44.781h5.0312v2h-5.0312z"/>
 <path d="m6 53.219h5.0312v2h-5.0312z"/>
 <path d="m6 61.656h5.0312v2h-5.0312z"/>
 <path d="m6 70.094h5.0312v2h-5.0312z"/>
 <path d="m6 36.344h5.0312v2h-5.0312z"/>
 <path d="m6 27.906h5.0312v2h-5.0312z"/>
<text x="0.0" y="117.5" font-size="5.0" font-weight="bold" font-family="Arbeit Regular, Helvetica, Arial-Unicode, Arial, Sans-serif" fill="#000000">Created by Fahrul Oktaviana</text><text x="0.0" y="122.5" font-size="5.0" font-weight="bold" font-family="Arbeit Regular, Helvetica, Arial-Unicode, Arial, Sans-serif" fill="#000000">from Noun Project</text></svg>