<svg xmlns="http://www.w3.org/2000/svg" data-name="Layer 1" viewBox="0 0 88.92 52.6875" x="0px" y="0px"><title>GPU</title><circle cx="31.71" cy="46.29" r="4.76" transform="translate(-28.98 7.05) rotate(-45)"/><circle cx="72.91" cy="46.29" r="4.76" transform="translate(-14.22 -10.94) rotate(-13.28)"/><path d="M33.18,52.22a6.65,6.65,0,0,1-1.42.18,9.12,9.12,0,0,0,5.81,5.09,12.82,12.82,0,0,0,2.94-2.18A8.51,8.51,0,0,1,33.18,52.22Z" transform="translate(-5.54 -28.93)"/><path d="M28.89,51.71a6.14,6.14,0,0,1-1.19-.82A9.15,9.15,0,0,0,29,58.71a12.32,12.32,0,0,0,2.66.29,10.6,10.6,0,0,0,1.14-.06s-.06,0-.08,0A8.52,8.52,0,0,1,28.89,51.71Z" transform="translate(-5.54 -28.93)"/><path d="M36.69,49.83a6.18,6.18,0,0,1-.94,1,9.23,9.23,0,0,0,7.57.31,13.3,13.3,0,0,0,1-3.56A8.54,8.54,0,0,1,36.69,49.83Z" transform="translate(-5.54 -28.93)"/><path d="M18.84,45.57c0,.1,0,.21,0,.31a13.6,13.6,0,0,0,.45,3.4,8.59,8.59,0,0,1,6.68-5A6,6,0,0,1,26.54,43,9.27,9.27,0,0,0,18.84,45.57Z" transform="translate(-5.54 -28.93)"/><path d="M28.55,41.06a6.13,6.13,0,0,1,1.38-.62,9.25,9.25,0,0,0-7.83-3.3,13,13,0,0,0-2.24,3.57l.16-.1A8.61,8.61,0,0,1,28.55,41.06Z" transform="translate(-5.54 -28.93)"/><path d="M35.36,33.7a8.6,8.6,0,0,1,.83,8.44,6.27,6.27,0,0,1,.79,1A9.21,9.21,0,0,0,38.71,35a12.69,12.69,0,0,0-4-1.8,4,4,0,0,1,.4.27A1.16,1.16,0,0,1,35.36,33.7Z" transform="translate(-5.54 -28.93)"/><path d="M26.61,34.21a8.65,8.65,0,0,1,6.07,6,5.92,5.92,0,0,1,1.25.34,9.23,9.23,0,0,0-4-7.63.16.16,0,0,1,0-.07,12.48,12.48,0,0,0-4.06,1.31,4,4,0,0,1,.47-.05A1.27,1.27,0,0,1,26.61,34.21Z" transform="translate(-5.54 -28.93)"/><path d="M37.8,45.84c0,.15,0,.3,0,.45a6.84,6.84,0,0,1-.07.91A9.25,9.25,0,0,0,44,42.45a13,13,0,0,0-1.55-3.6s0,0,0,0A8.57,8.57,0,0,1,37.8,45.84Z" transform="translate(-5.54 -28.93)"/><path d="M25.66,47.12a9.22,9.22,0,0,0-4.15,6.78,13.23,13.23,0,0,0,2.74,2.7s0,0,0-.05A8.58,8.58,0,0,1,26,48.49,5.74,5.74,0,0,1,25.66,47.12Z" transform="translate(-5.54 -28.93)"/><path d="M74.38,52.22A6.65,6.65,0,0,1,73,52.4a9.12,9.12,0,0,0,5.81,5.09,12.82,12.82,0,0,0,2.94-2.18A8.51,8.51,0,0,1,74.38,52.22Z" transform="translate(-5.54 -28.93)"/><path d="M94,30H33.91l-1.6-1.07H16.53L14.93,30H10.79a.47.47,0,0,0-.46.46V31.8H5.54v1.46H8.86V71.07h1.47v-9.7a.47.47,0,0,0,.46.46H21V63.3h2.49V61.83H24.6v3h3.45V62.39a.34.34,0,1,1,.67,0v2.42H50.61V62.17a.34.34,0,1,1,.67,0V64h4.08v-2.2H94a.46.46,0,0,0,.45-.46V30.46A.46.46,0,0,0,94,30ZM18.5,32.74a1.34,1.34,0,1,1-1.34,1.34A1.34,1.34,0,0,1,18.5,32.74Zm0,26.32a1.34,1.34,0,1,1,1.34-1.34A1.34,1.34,0,0,1,18.5,59.06Zm13.12,1.06A14.24,14.24,0,1,1,45.86,45.88,14.23,14.23,0,0,1,31.62,60.12Zm41.2,0A14.24,14.24,0,1,1,87.06,45.88,14.23,14.23,0,0,1,72.82,60.12Zm14.24-1.06a1.34,1.34,0,1,1,1.34-1.34A1.34,1.34,0,0,1,87.06,59.06Zm0-23.64a1.34,1.34,0,1,1,1.34-1.34A1.34,1.34,0,0,1,87.06,35.42Z" transform="translate(-5.54 -28.93)"/><path d="M70.09,51.71a6.14,6.14,0,0,1-1.19-.82,9.15,9.15,0,0,0,1.26,7.82,12.32,12.32,0,0,0,2.66.29A10.6,10.6,0,0,0,74,58.94l-.08,0A8.52,8.52,0,0,1,70.09,51.71Z" transform="translate(-5.54 -28.93)"/><path d="M66.86,47.12a9.22,9.22,0,0,0-4.15,6.78,13.23,13.23,0,0,0,2.74,2.7s0,0,0-.05a8.58,8.58,0,0,1,1.78-8.06A5.74,5.74,0,0,1,66.86,47.12Z" transform="translate(-5.54 -28.93)"/><path d="M77.89,49.83a6.18,6.18,0,0,1-.94,1,9.23,9.23,0,0,0,7.57.31,13.3,13.3,0,0,0,1-3.56A8.54,8.54,0,0,1,77.89,49.83Z" transform="translate(-5.54 -28.93)"/><path d="M60,45.57c0,.1,0,.21,0,.31a13.6,13.6,0,0,0,.45,3.4,8.59,8.59,0,0,1,6.68-5A6,6,0,0,1,67.74,43,9.27,9.27,0,0,0,60,45.57Z" transform="translate(-5.54 -28.93)"/><path d="M79,46.29a6.84,6.84,0,0,1-.07.91,9.25,9.25,0,0,0,6.21-4.75,13,13,0,0,0-1.55-3.6s0,0,0,0A8.57,8.57,0,0,1,79,45.84C79,46,79,46.14,79,46.29Z" transform="translate(-5.54 -28.93)"/><path d="M69.75,41.06a6.13,6.13,0,0,1,1.38-.62,9.25,9.25,0,0,0-7.83-3.3,13,13,0,0,0-2.24,3.57l.16-.1A8.61,8.61,0,0,1,69.75,41.06Z" transform="translate(-5.54 -28.93)"/><path d="M76.56,33.7a8.6,8.6,0,0,1,.83,8.44,6.27,6.27,0,0,1,.79,1A9.21,9.21,0,0,0,79.91,35a12.69,12.69,0,0,0-4-1.8,4,4,0,0,1,.4.27A1.16,1.16,0,0,1,76.56,33.7Z" transform="translate(-5.54 -28.93)"/><path d="M67.81,34.21a8.65,8.65,0,0,1,6.07,6,5.92,5.92,0,0,1,1.25.34,9.23,9.23,0,0,0-4-7.63s0,0,0-.07A12.48,12.48,0,0,0,67,34.21a4,4,0,0,1,.47-.05A1.27,1.27,0,0,1,67.81,34.21Z" transform="translate(-5.54 -28.93)"/><text x="0" y="57.15" fill="#000000" font-size="5px" font-weight="bold" font-family="'Helvetica Neue', Helvetica, Arial-Unicode, Arial, Sans-serif">by VectorCorner - Icons by EnzoP</text><text x="0" y="62.15" fill="#000000" font-size="5px" font-weight="bold" font-family="'Helvetica Neue', Helvetica, Arial-Unicode, Arial, Sans-serif">from the Noun Project</text></svg>