<svg xmlns="http://www.w3.org/2000/svg" version="1.1" viewBox="-5.0 -10.0 110.0 135.0">
 <path d="m92.422 57.797h-34.609v-3.6406c0-0.4375-0.34375-0.78125-0.78125-0.78125h-6.2969c-0.39062-4.5938-4.25-8.2031-8.9531-8.2031h-13.484c-2.4844 0-4.5-2.0156-4.5-4.5s2.0156-4.5 4.5-4.5h10.859c3.8125 0 6.9219-3.1094 6.9219-6.9219v-1.2188h1.5625c0.4375 0 0.78125-0.34375 0.78125-0.78125v-2.5625c1.4062-0.98438 2.3438-2.625 2.3438-4.4844v-7.0312c0-0.4375-0.34375-0.78125-0.78125-0.78125h-0.39062v-4.5312c0-0.4375-0.34375-0.78125-0.78125-0.78125h-7.0312c-0.4375 0-0.78125 0.34375-0.78125 0.78125v4.5469h-0.375c-0.4375 0-0.78125 0.34375-0.78125 0.78125v7.0312c0 1.8594 0.9375 3.4844 2.3438 4.4844v2.5625c0 0.4375 0.34375 0.78125 0.78125 0.78125h1.5625v1.2188c0 2.9531-2.4062 5.3594-5.3594 5.3594h-10.859c-3.3438 0-6.0625 2.7188-6.0625 6.0625s2.7188 6.0625 6.0625 6.0625h13.484c3.8281 0 6.9531 2.9219 7.3438 6.6406h-6.1719c-0.4375 0-0.78125 0.34375-0.78125 0.78125v3.6406h-34.609c-1.7188 0-3.125 1.4062-3.125 3.125v28.875c0 1.7188 1.4062 3.125 3.125 3.125h84.828c1.7188 0 3.125-1.4062 3.125-3.125v-28.891c0.015625-1.7188-1.3906-3.125-3.1094-3.125zm-49.844-49.156h5.4688v3.7656h-5.4688zm-1.1719 11.578v-6.25h7.8125v6.25c0 2.1562-1.75 3.9062-3.9062 3.9062s-3.9062-1.75-3.9062-3.9062zm2.3438 6.25v-1.0312c0.5 0.15625 1.0156 0.25 1.5625 0.25s1.0625-0.10938 1.5625-0.25v1.0312zm0 28.469h12.5v2.8594h-12.5zm50.234 34.859c0 0.85938-0.70312 1.5625-1.5625 1.5625h-84.844c-0.85938 0-1.5625-0.70312-1.5625-1.5625v-28.875c0-0.85938 0.70312-1.5625 1.5625-1.5625h35.359 0.015625 0.015625 14.047 0.015625 0.015625 35.359c0.85938 0 1.5625 0.70312 1.5625 1.5625v28.875z"/>
 <path d="m13.219 68.797h3.6875c0.4375 0 0.78125-0.34375 0.78125-0.78125v-3.6875c0-0.4375-0.34375-0.78125-0.78125-0.78125h-3.6875c-0.4375 0-0.78125 0.34375-0.78125 0.78125v3.6875c0 0.4375 0.35938 0.78125 0.78125 0.78125zm0.78125-3.6875h2.125v2.125h-2.125z"/>
 <path d="m19.578 68.797h3.6875c0.4375 0 0.78125-0.34375 0.78125-0.78125v-3.6875c0-0.4375-0.34375-0.78125-0.78125-0.78125h-3.6875c-0.4375 0-0.78125 0.34375-0.78125 0.78125v3.6875c0 0.4375 0.34375 0.78125 0.78125 0.78125zm0.78125-3.6875h2.125v2.125h-2.125z"/>
 <path d="m25.922 68.797h3.6875c0.4375 0 0.78125-0.34375 0.78125-0.78125v-3.6875c0-0.4375-0.34375-0.78125-0.78125-0.78125h-3.6875c-0.4375 0-0.78125 0.34375-0.78125 0.78125v3.6875c0 0.4375 0.35938 0.78125 0.78125 0.78125zm0.78125-3.6875h2.125v2.125h-2.125z"/>
 <path d="m32.281 68.797h3.6875c0.4375 0 0.78125-0.34375 0.78125-0.78125v-3.6875c0-0.4375-0.34375-0.78125-0.78125-0.78125h-3.6875c-0.4375 0-0.78125 0.34375-0.78125 0.78125v3.6875c0 0.4375 0.34375 0.78125 0.78125 0.78125zm0.78125-3.6875h2.125v2.125h-2.125z"/>
 <path d="m38.625 68.797h3.6875c0.4375 0 0.78125-0.34375 0.78125-0.78125v-3.6875c0-0.4375-0.34375-0.78125-0.78125-0.78125h-3.6875c-0.4375 0-0.78125 0.34375-0.78125 0.78125v3.6875c0 0.4375 0.35938 0.78125 0.78125 0.78125zm0.78125-3.6875h2.125v2.125h-2.125z"/>
 <path d="m44.984 68.797h3.6875c0.4375 0 0.78125-0.34375 0.78125-0.78125v-3.6875c0-0.4375-0.34375-0.78125-0.78125-0.78125h-3.6875c-0.4375 0-0.78125 0.34375-0.78125 0.78125v3.6875c0 0.4375 0.34375 0.78125 0.78125 0.78125zm0.78125-3.6875h2.125v2.125h-2.125z"/>
 <path d="m51.328 68.797h3.6875c0.4375 0 0.78125-0.34375 0.78125-0.78125v-3.6875c0-0.4375-0.34375-0.78125-0.78125-0.78125h-3.6875c-0.4375 0-0.78125 0.34375-0.78125 0.78125v3.6875c0 0.4375 0.34375 0.78125 0.78125 0.78125zm0.78125-3.6875h2.125v2.125h-2.125z"/>
 <path d="m57.688 68.797h3.6875c0.4375 0 0.78125-0.34375 0.78125-0.78125v-3.6875c0-0.4375-0.34375-0.78125-0.78125-0.78125h-3.6875c-0.4375 0-0.78125 0.34375-0.78125 0.78125v3.6875c0 0.4375 0.34375 0.78125 0.78125 0.78125zm0.78125-3.6875h2.125v2.125h-2.125z"/>
 <path d="m64.031 68.797h3.6875c0.4375 0 0.78125-0.34375 0.78125-0.78125v-3.6875c0-0.4375-0.34375-0.78125-0.78125-0.78125h-3.6875c-0.4375 0-0.78125 0.34375-0.78125 0.78125v3.6875c0 0.4375 0.34375 0.78125 0.78125 0.78125zm0.78125-3.6875h2.125v2.125h-2.125z"/>
 <path d="m70.375 68.797h3.6875c0.4375 0 0.78125-0.34375 0.78125-0.78125v-3.6875c0-0.4375-0.34375-0.78125-0.78125-0.78125h-3.6875c-0.4375 0-0.78125 0.34375-0.78125 0.78125v3.6875c0 0.4375 0.35938 0.78125 0.78125 0.78125zm0.78125-3.6875h2.125v2.125h-2.125z"/>
 <path d="m76.734 68.797h3.6875c0.4375 0 0.78125-0.34375 0.78125-0.78125v-3.6875c0-0.4375-0.34375-0.78125-0.78125-0.78125h-3.6875c-0.4375 0-0.78125 0.34375-0.78125 0.78125v3.6875c0 0.4375 0.34375 0.78125 0.78125 0.78125zm0.78125-3.6875h2.125v2.125h-2.125z"/>
 <path d="m83.078 68.797h3.6875c0.4375 0 0.78125-0.34375 0.78125-0.78125v-3.6875c0-0.4375-0.34375-0.78125-0.78125-0.78125h-3.6875c-0.4375 0-0.78125 0.34375-0.78125 0.78125v3.6875c0 0.4375 0.35938 0.78125 0.78125 0.78125zm0.78125-3.6875h2.125v2.125h-2.125z"/>
 <path d="m10.047 74.922h3.6875c0.4375 0 0.78125-0.34375 0.78125-0.78125v-3.6875c0-0.4375-0.34375-0.78125-0.78125-0.78125h-3.6875c-0.4375 0-0.78125 0.34375-0.78125 0.78125v3.6875c0 0.4375 0.35938 0.78125 0.78125 0.78125zm0.78125-3.6875h2.125v2.125h-2.125z"/>
 <path d="m20.875 70.453c0-0.4375-0.34375-0.78125-0.78125-0.78125h-3.6875c-0.4375 0-0.78125 0.34375-0.78125 0.78125v3.6875c0 0.4375 0.34375 0.78125 0.78125 0.78125h3.6875c0.4375 0 0.78125-0.34375 0.78125-0.78125zm-1.5625 2.9062h-2.125v-2.125h2.125z"/>
 <path d="m27.219 70.453c0-0.4375-0.34375-0.78125-0.78125-0.78125h-3.6875c-0.4375 0-0.78125 0.34375-0.78125 0.78125v3.6875c0 0.4375 0.34375 0.78125 0.78125 0.78125h3.6875c0.4375 0 0.78125-0.34375 0.78125-0.78125zm-1.5625 2.9062h-2.125v-2.125h2.125z"/>
 <path d="m33.578 70.453c0-0.4375-0.34375-0.78125-0.78125-0.78125h-3.6875c-0.4375 0-0.78125 0.34375-0.78125 0.78125v3.6875c0 0.4375 0.34375 0.78125 0.78125 0.78125h3.6875c0.4375 0 0.78125-0.34375 0.78125-0.78125zm-1.5625 2.9062h-2.125v-2.125h2.125z"/>
 <path d="m39.922 70.453c0-0.4375-0.34375-0.78125-0.78125-0.78125h-3.6875c-0.4375 0-0.78125 0.34375-0.78125 0.78125v3.6875c0 0.4375 0.34375 0.78125 0.78125 0.78125h3.6875c0.4375 0 0.78125-0.34375 0.78125-0.78125zm-1.5625 2.9062h-2.125v-2.125h2.125z"/>
 <path d="m46.281 70.453c0-0.4375-0.34375-0.78125-0.78125-0.78125h-3.6875c-0.4375 0-0.78125 0.34375-0.78125 0.78125v3.6875c0 0.4375 0.34375 0.78125 0.78125 0.78125h3.6875c0.4375 0 0.78125-0.34375 0.78125-0.78125zm-1.5625 2.9062h-2.125v-2.125h2.125z"/>
 <path d="m52.625 70.453c0-0.4375-0.34375-0.78125-0.78125-0.78125h-3.6875c-0.4375 0-0.78125 0.34375-0.78125 0.78125v3.6875c0 0.4375 0.34375 0.78125 0.78125 0.78125h3.6875c0.4375 0 0.78125-0.34375 0.78125-0.78125zm-1.5625 2.9062h-2.125v-2.125h2.125z"/>
 <path d="m58.984 70.453c0-0.4375-0.34375-0.78125-0.78125-0.78125h-3.6875c-0.4375 0-0.78125 0.34375-0.78125 0.78125v3.6875c0 0.4375 0.34375 0.78125 0.78125 0.78125h3.6875c0.4375 0 0.78125-0.34375 0.78125-0.78125zm-1.5625 2.9062h-2.125v-2.125h2.125z"/>
 <path d="m65.328 70.453c0-0.4375-0.34375-0.78125-0.78125-0.78125h-3.6875c-0.4375 0-0.78125 0.34375-0.78125 0.78125v3.6875c0 0.4375 0.34375 0.78125 0.78125 0.78125h3.6875c0.4375 0 0.78125-0.34375 0.78125-0.78125zm-1.5625 2.9062h-2.125v-2.125h2.125z"/>
 <path d="m71.688 70.453c0-0.4375-0.34375-0.78125-0.78125-0.78125h-3.6875c-0.4375 0-0.78125 0.34375-0.78125 0.78125v3.6875c0 0.4375 0.34375 0.78125 0.78125 0.78125h3.6875c0.4375 0 0.78125-0.34375 0.78125-0.78125zm-1.5625 2.9062h-2.125v-2.125h2.125z"/>
 <path d="m84.375 70.453c0-0.4375-0.34375-0.78125-0.78125-0.78125h-3.6875c-0.4375 0-0.78125 0.34375-0.78125 0.78125v3.6875c0 0.4375 0.34375 0.78125 0.78125 0.78125h3.6875c0.4375 0 0.78125-0.34375 0.78125-0.78125zm-1.5625 2.9062h-2.125v-2.125h2.125z"/>
 <path d="m78.031 70.453c0-0.4375-0.34375-0.78125-0.78125-0.78125h-3.6875c-0.4375 0-0.78125 0.34375-0.78125 0.78125v3.6875c0 0.4375 0.34375 0.78125 0.78125 0.78125h3.6875c0.4375 0 0.78125-0.34375 0.78125-0.78125zm-1.5625 2.9062h-2.125v-2.125h2.125z"/>
 <path d="m83.594 75.797h-3.6875c-0.4375 0-0.78125 0.34375-0.78125 0.78125v3.6875c0 0.4375 0.34375 0.78125 0.78125 0.78125h3.6875c0.4375 0 0.78125-0.34375 0.78125-0.78125v-3.6875c0-0.4375-0.34375-0.78125-0.78125-0.78125zm-0.78125 3.6875h-2.125v-2.125h2.125z"/>
 <path d="m77.25 75.797h-3.6875c-0.4375 0-0.78125 0.34375-0.78125 0.78125v3.6875c0 0.4375 0.34375 0.78125 0.78125 0.78125h3.6875c0.4375 0 0.78125-0.34375 0.78125-0.78125v-3.6875c0-0.4375-0.34375-0.78125-0.78125-0.78125zm-0.78125 3.6875h-2.125v-2.125h2.125z"/>
 <path d="m89.953 69.672h-3.6875c-0.4375 0-0.78125 0.34375-0.78125 0.78125v3.6875c0 0.4375 0.34375 0.78125 0.78125 0.78125h3.6875c0.4375 0 0.78125-0.34375 0.78125-0.78125v-3.6875c0-0.4375-0.35938-0.78125-0.78125-0.78125zm-0.78125 3.6875h-2.125v-2.125h2.125z"/>
 <path d="m14.516 80.266v-3.6875c0-0.4375-0.34375-0.78125-0.78125-0.78125h-3.6875c-0.4375 0-0.78125 0.34375-0.78125 0.78125v3.6875c0 0.4375 0.34375 0.78125 0.78125 0.78125h3.6875c0.4375 0 0.78125-0.34375 0.78125-0.78125zm-1.5625-0.78125h-2.125v-2.125h2.125z"/>
 <path d="m20.094 75.797h-3.6875c-0.4375 0-0.78125 0.34375-0.78125 0.78125v3.6875c0 0.4375 0.34375 0.78125 0.78125 0.78125h3.6875c0.4375 0 0.78125-0.34375 0.78125-0.78125v-3.6875c0-0.4375-0.34375-0.78125-0.78125-0.78125zm-0.78125 3.6875h-2.125v-2.125h2.125z"/>
 <path d="m26.438 75.797h-3.6875c-0.4375 0-0.78125 0.34375-0.78125 0.78125v3.6875c0 0.4375 0.34375 0.78125 0.78125 0.78125h3.6875c0.4375 0 0.78125-0.34375 0.78125-0.78125v-3.6875c0-0.4375-0.34375-0.78125-0.78125-0.78125zm-0.78125 3.6875h-2.125v-2.125h2.125z"/>
 <path d="m32.797 75.797h-3.6875c-0.4375 0-0.78125 0.34375-0.78125 0.78125v3.6875c0 0.4375 0.34375 0.78125 0.78125 0.78125h3.6875c0.4375 0 0.78125-0.34375 0.78125-0.78125v-3.6875c0-0.4375-0.35938-0.78125-0.78125-0.78125zm-0.78125 3.6875h-2.125v-2.125h2.125z"/>
 <path d="m39.141 75.797h-3.6875c-0.4375 0-0.78125 0.34375-0.78125 0.78125v3.6875c0 0.4375 0.34375 0.78125 0.78125 0.78125h3.6875c0.4375 0 0.78125-0.34375 0.78125-0.78125v-3.6875c0-0.4375-0.34375-0.78125-0.78125-0.78125zm-0.78125 3.6875h-2.125v-2.125h2.125z"/>
 <path d="m45.5 75.797h-3.6875c-0.4375 0-0.78125 0.34375-0.78125 0.78125v3.6875c0 0.4375 0.34375 0.78125 0.78125 0.78125h3.6875c0.4375 0 0.78125-0.34375 0.78125-0.78125v-3.6875c0-0.4375-0.35938-0.78125-0.78125-0.78125zm-0.78125 3.6875h-2.125v-2.125h2.125z"/>
 <path d="m51.844 75.797h-3.6875c-0.4375 0-0.78125 0.34375-0.78125 0.78125v3.6875c0 0.4375 0.34375 0.78125 0.78125 0.78125h3.6875c0.4375 0 0.78125-0.34375 0.78125-0.78125v-3.6875c0-0.4375-0.34375-0.78125-0.78125-0.78125zm-0.78125 3.6875h-2.125v-2.125h2.125z"/>
 <path d="m58.203 75.797h-3.6875c-0.4375 0-0.78125 0.34375-0.78125 0.78125v3.6875c0 0.4375 0.34375 0.78125 0.78125 0.78125h3.6875c0.4375 0 0.78125-0.34375 0.78125-0.78125v-3.6875c0-0.4375-0.35938-0.78125-0.78125-0.78125zm-0.78125 3.6875h-2.125v-2.125h2.125z"/>
 <path d="m64.547 75.797h-3.6875c-0.4375 0-0.78125 0.34375-0.78125 0.78125v3.6875c0 0.4375 0.34375 0.78125 0.78125 0.78125h3.6875c0.4375 0 0.78125-0.34375 0.78125-0.78125v-3.6875c0-0.4375-0.34375-0.78125-0.78125-0.78125zm-0.78125 3.6875h-2.125v-2.125h2.125z"/>
 <path d="m70.906 75.797h-3.6875c-0.4375 0-0.78125 0.34375-0.78125 0.78125v3.6875c0 0.4375 0.34375 0.78125 0.78125 0.78125h3.6875c0.4375 0 0.78125-0.34375 0.78125-0.78125v-3.6875c0-0.4375-0.35938-0.78125-0.78125-0.78125zm-0.78125 3.6875h-2.125v-2.125h2.125z"/>
 <path d="m89.953 75.797h-3.6875c-0.4375 0-0.78125 0.34375-0.78125 0.78125v3.6875c0 0.4375 0.34375 0.78125 0.78125 0.78125h3.6875c0.4375 0 0.78125-0.34375 0.78125-0.78125v-3.6875c0-0.4375-0.35938-0.78125-0.78125-0.78125zm-0.78125 3.6875h-2.125v-2.125h2.125z"/>
 <path d="m16.922 81.922h-3.7031c-0.4375 0-0.78125 0.34375-0.78125 0.78125v3.6875c0 0.4375 0.34375 0.78125 0.78125 0.78125h3.6875c0.4375 0 0.78125-0.34375 0.78125-0.78125v-3.6875c0.015625-0.4375-0.34375-0.78125-0.76562-0.78125zm-0.78125 3.6875h-2.1406v-2.125h2.125v2.125z"/>
 <path d="m23.266 81.922h-3.6875c-0.4375 0-0.78125 0.34375-0.78125 0.78125v3.6875c0 0.4375 0.34375 0.78125 0.78125 0.78125h3.6875c0.4375 0 0.78125-0.34375 0.78125-0.78125v-3.6875c0-0.4375-0.34375-0.78125-0.78125-0.78125zm-0.78125 3.6875h-2.125v-2.125h2.125z"/>
 <path d="m60.859 81.922h-34.938c-0.4375 0-0.78125 0.34375-0.78125 0.78125v3.6875c0 0.4375 0.34375 0.78125 0.78125 0.78125h34.922c0.4375 0 0.78125-0.34375 0.78125-0.78125v-3.6875c0.015625-0.4375-0.34375-0.78125-0.76562-0.78125zm-0.78125 3.6875h-33.375v-2.125h33.359v2.125z"/>
 <path d="m67.719 81.922h-3.6875c-0.4375 0-0.78125 0.34375-0.78125 0.78125v3.6875c0 0.4375 0.34375 0.78125 0.78125 0.78125h3.6875c0.4375 0 0.78125-0.34375 0.78125-0.78125v-3.6875c0-0.4375-0.34375-0.78125-0.78125-0.78125zm-0.78125 3.6875h-2.125v-2.125h2.125z"/>
 <path d="m74.078 81.922h-3.6875c-0.4375 0-0.78125 0.34375-0.78125 0.78125v3.6875c0 0.4375 0.34375 0.78125 0.78125 0.78125h3.6875c0.4375 0 0.78125-0.34375 0.78125-0.78125v-3.6875c0-0.4375-0.35938-0.78125-0.78125-0.78125zm-0.78125 3.6875h-2.125v-2.125h2.125z"/>
 <path d="m80.422 81.922h-3.6875c-0.4375 0-0.78125 0.34375-0.78125 0.78125v3.6875c0 0.4375 0.34375 0.78125 0.78125 0.78125h3.6875c0.4375 0 0.78125-0.34375 0.78125-0.78125v-3.6875c0-0.4375-0.34375-0.78125-0.78125-0.78125zm-0.78125 3.6875h-2.125v-2.125h2.125z"/>
 <path d="m86.781 81.922h-3.6875c-0.4375 0-0.78125 0.34375-0.78125 0.78125v3.6875c0 0.4375 0.34375 0.78125 0.78125 0.78125h3.6875c0.4375 0 0.78125-0.34375 0.78125-0.78125v-3.6875c0-0.4375-0.35938-0.78125-0.78125-0.78125zm-0.78125 3.6875h-2.125v-2.125h2.125z"/>
 <path d="m42.969 16.859h4.6875c0.4375 0 0.78125-0.34375 0.78125-0.78125s-0.34375-0.78125-0.78125-0.78125h-4.6875c-0.4375 0-0.78125 0.34375-0.78125 0.78125s0.34375 0.78125 0.78125 0.78125z"/>
 <path d="m48.438 18.422c0-0.4375-0.34375-0.78125-0.78125-0.78125h-4.6875c-0.4375 0-0.78125 0.34375-0.78125 0.78125s0.34375 0.78125 0.78125 0.78125h4.6875c0.4375 0 0.78125-0.34375 0.78125-0.78125z"/>
 <path d="m47.266 20.766c0-0.4375-0.34375-0.78125-0.78125-0.78125h-2.3438c-0.4375 0-0.78125 0.34375-0.78125 0.78125s0.34375 0.78125 0.78125 0.78125h2.3438c0.4375 0 0.78125-0.34375 0.78125-0.78125z"/>
 <path d="m44.141 9.0781c-0.4375 0-0.78125 0.34375-0.78125 0.78125v1.5156c0 0.4375 0.34375 0.78125 0.78125 0.78125s0.78125-0.34375 0.78125-0.78125v-1.5156c0-0.4375-0.35938-0.78125-0.78125-0.78125z"/>
 <path d="m46.484 9.0781c-0.4375 0-0.78125 0.34375-0.78125 0.78125v1.5156c0 0.4375 0.34375 0.78125 0.78125 0.78125s0.78125-0.34375 0.78125-0.78125v-1.5156c0-0.4375-0.34375-0.78125-0.78125-0.78125z"/>
<text x="0.0" y="117.5" font-size="5.0" font-weight="bold" font-family="Arbeit Regular, Helvetica, Arial-Unicode, Arial, Sans-serif" fill="#000000">Created by Buildhouse10</text><text x="0.0" y="122.5" font-size="5.0" font-weight="bold" font-family="Arbeit Regular, Helvetica, Arial-Unicode, Arial, Sans-serif" fill="#000000">from Noun Project</text></svg>