<svg xmlns="http://www.w3.org/2000/svg" version="1.1" viewBox="-5.0 -10.0 110.0 135.0">
 <path d="m54.09 72.254 22.254 8.1875c1.3984 0.51953 2.9414 0.39453 4.1797-0.28125l-26.438-11.988v4.082z"/>
 <path d="m47.859 64.125v9.4062c0 0.28906 0.24219 0.53125 0.53125 0.53125h3.1719c0.28516 0 0.53125-0.24219 0.53125-0.53125v-9.4023c-1.2188 0.79297-3.0117 0.78906-4.2305-0.003906z"/>
 <path d="m5.9805 57.266v2.6172c12.402-2.0195 31.055-3.1133 47.121-2.9336 15.301 0.12109 29.77 1.1602 40.922 2.9336v-2.6172c-29.141-3.7188-58.898-3.7188-88.039 0z"/>
 <path d="m47.859 60.609c0 1.168 0.94922 2.1211 2.1211 2.1211 1.168 0 2.1094-0.94922 2.1094-2.1211v-1.6641c-1.4062-0.007812-2.8281-0.007812-4.2305 0z"/>
 <path d="m23.625 80.441 22.234-8.1875v-4.082l-26.375 11.961c1.2461 0.59766 2.9609 0.74219 4.1406 0.30859z"/>
 <path d="m5.9805 19.414v35.824c29.148-3.6797 58.891-3.6797 88.039 0v-35.824c-23.395 3.8828-64.652 3.8828-88.039 0zm3.4648 9.3516 3.8945-3.8945c0.92969-0.92188 2.3359 0.48828 1.4141 1.4141l-3.8945 3.8945c-0.19531 0.19531-0.44922 0.29297-0.70703 0.29297-0.85547 0.03125-1.3438-1.1133-0.70703-1.707zm11.188-1.4648-9.1055 9.1445c-0.39062 0.39063-1.0234 0.39453-1.4141 0.003907s-0.39453-1.0234-0.003906-1.4141l9.1055-9.1445c0.39062-0.39062 1.0234-0.39453 1.4141-0.003906s0.39453 1.0234 0.003906 1.4141z"/>
<text x="0.0" y="117.5" font-size="5.0" font-weight="bold" font-family="Arbeit Regular, Helvetica, Arial-Unicode, Arial, Sans-serif" fill="#000000">Created by Fahrul Oktaviana</text><text x="0.0" y="122.5" font-size="5.0" font-weight="bold" font-family="Arbeit Regular, Helvetica, Arial-Unicode, Arial, Sans-serif" fill="#000000">from Noun Project</text></svg>