<svg xmlns="http://www.w3.org/2000/svg" xmlns:xlink="http://www.w3.org/1999/xlink" version="1.1" x="0px" y="0px" viewBox="0 0 100 125" style="enable-background:new 0 0 100 100;" xml:space="preserve"><g><g><path d="M84.184,16.379H62.711l-2.872-2.872c-0.155-0.155-0.359-0.237-0.579-0.237H34.727c-0.457,0-0.816,0.367-0.816,0.816v2.293    H26.96l-7.424-7.963c-0.155-0.163-0.367-0.261-0.596-0.261h-3.125C15.367,8.155,15,8.522,15,8.971v45.231    c0,0.449,0.367,0.816,0.816,0.816h2.611v36.012c0,0.449,0.367,0.816,0.816,0.816h64.942c0.449,0,0.816-0.367,0.816-0.816V17.195    C85,16.746,84.633,16.379,84.184,16.379z M69.319,28.821c0-0.228,0.179-0.408,0.408-0.408h1.632c0.228,0,0.408,0.179,0.408,0.408    v24.476c0,0.228-0.18,0.408-0.408,0.408h-1.632c-0.228,0-0.408-0.179-0.408-0.408V28.821z M63.682,28.821    c0-0.228,0.18-0.408,0.408-0.408h1.632c0.228,0,0.408,0.179,0.408,0.408v24.476c0,0.228-0.179,0.408-0.408,0.408H64.09    c-0.228,0-0.408-0.179-0.408-0.408V28.821z M35.543,20.115h16.888c0.449,0,0.816-0.367,0.816-0.816    c0-0.449-0.367-0.816-0.816-0.816H35.543v-1.281c0,0,0,0,0-0.008s0-0.008,0-0.008v-2.284h23.382l2.864,2.864    c0,0.008,0,0.008,0.008,0.008l1.101,1.101l-5.042,3.622H41.409c-0.449,0-0.816,0.367-0.816,0.816c0,0.449,0.367,0.816,0.816,0.816    h14.179l-1.485,1.069H35.543V20.115z M60.484,28.821v24.476c0,0.228-0.179,0.408-0.408,0.408h-1.632    c-0.228,0-0.408-0.179-0.408-0.408V28.821c0-0.228,0.179-0.408,0.408-0.408h1.632C60.304,28.413,60.484,28.592,60.484,28.821z     M34.58,35.837h2.717v-1.648c0-0.449,0.367-0.816,0.816-0.816h1.428v-2.7c0-0.449,0.367-0.816,0.816-0.816    c0.457,0,0.816,0.367,0.816,0.816v2.7h2.04v-2.7c0-0.449,0.367-0.816,0.816-0.816c0.457,0,0.816,0.367,0.816,0.816v2.7h2.431    v-2.717c0-0.449,0.367-0.816,0.816-0.816s0.816,0.367,0.816,0.816v2.717h1.444c0.457,0,0.816,0.367,0.816,0.816v1.632h2.709    c0.449,0,0.816,0.367,0.816,0.816c0,0.457-0.367,0.816-0.816,0.816h-2.709v2.04h2.709c0.449,0,0.816,0.367,0.816,0.816    c0,0.457-0.367,0.816-0.816,0.816h-2.709v2.431h2.725c0.449,0,0.816,0.367,0.816,0.816c0,0.457-0.367,0.816-0.816,0.816h-2.725    v1.648c0,0.457-0.359,0.816-0.816,0.816h-1.428v2.709c0,0.449-0.359,0.816-0.816,0.816c-0.449,0-0.816-0.367-0.816-0.816V47.65    h-2.04v2.709c0,0.449-0.359,0.816-0.816,0.816c-0.449,0-0.816-0.367-0.816-0.816V47.65h-2.431v2.725    c0,0.449-0.359,0.816-0.816,0.816c-0.449,0-0.816-0.367-0.816-0.816V47.65h-1.444c-0.449,0-0.816-0.359-0.816-0.816v-1.632h-2.7    c-0.449,0-0.816-0.359-0.816-0.816c0-0.449,0.367-0.816,0.816-0.816h2.7v-2.04h-2.7c-0.449,0-0.816-0.359-0.816-0.816    c0-0.449,0.367-0.816,0.816-0.816h2.7v-2.431H34.58c-0.449,0-0.816-0.359-0.816-0.816C33.765,36.204,34.132,35.837,34.58,35.837z     M46.851,61.471c-2.39,0-4.332-1.942-4.332-4.332c0-2.39,1.942-4.332,4.332-4.332s4.332,1.942,4.332,4.332    C51.183,59.529,49.241,61.471,46.851,61.471z M50.073,64.669v1.632c0,0.228-0.179,0.408-0.408,0.408H33.153    c-0.228,0-0.408-0.179-0.408-0.408v-1.632c0-0.228,0.179-0.408,0.408-0.408h16.513C49.894,64.261,50.073,64.441,50.073,64.669z     M18.883,53.386h-2.252V9.787h1.958l7.432,7.979c0,0,0,0.008,0.008,0.008l5.017,5.385v16.774L18.883,53.386z M23.974,88.174    c-0.897,0-1.632-0.734-1.632-1.632c0-0.898,0.734-1.632,1.632-1.632c0.897,0,1.632,0.734,1.632,1.632    C25.606,87.439,24.872,88.174,23.974,88.174z M26.691,60.345v-0.587H25.59c-0.449,0-0.816-0.367-0.816-0.816    c0-0.457,0.367-0.816,0.816-0.816h1.101v-1.632H25.59c-0.449,0-0.816-0.367-0.816-0.816c0-0.457,0.367-0.816,0.816-0.816h1.101    v-0.734c0-0.457,0.367-0.816,0.816-0.816h5.238c0.449,0,0.816,0.359,0.816,0.816v0.734h1.101c0.449,0,0.816,0.359,0.816,0.816    c0,0.449-0.367,0.816-0.816,0.816h-1.101v1.632h1.101c0.449,0,0.816,0.359,0.816,0.816c0,0.449-0.367,0.816-0.816,0.816h-1.101    v0.587c0,0.457-0.367,0.816-0.816,0.816h-5.238C27.058,61.161,26.691,60.802,26.691,60.345z M32.573,86.746h-1.632v-1.632h1.632    V86.746z M32.573,83.483h-1.632v-1.632h1.632V83.483z M32.745,74.035v-1.632c0-0.228,0.179-0.408,0.408-0.408h16.513    c0.228,0,0.408,0.18,0.408,0.408v1.632c0,0.228-0.179,0.408-0.408,0.408H33.153C32.924,74.443,32.745,74.263,32.745,74.035z     M35.837,86.746h-1.632v-1.632h1.632V86.746z M35.837,83.483h-1.632v-1.632h1.632V83.483z M39.1,86.746h-1.632v-1.632H39.1V86.746    z M39.1,83.483h-1.632v-1.632H39.1V83.483z M66.35,85.114H45.79l3.223-6.119h21.204L66.35,85.114z M75.887,74.239h-5.499    l-5.711-5.711c-0.318-0.318-0.832-0.318-1.15,0c-0.318,0.318-0.318,0.832,0,1.15l4.561,4.561h-4.348L59.7,70.192v-12.14h6.225    l5.711,5.711C71.8,63.927,72.004,64,72.216,64c0.204,0,0.416-0.073,0.571-0.237c0.318-0.318,0.318-0.832,0-1.15l-4.552-4.561    h3.606l4.047,4.047V74.239z M77.413,53.296c0,0.228-0.179,0.408-0.408,0.408h-1.632c-0.228,0-0.408-0.179-0.408-0.408V28.821    c0-0.228,0.179-0.408,0.408-0.408h1.632c0.228,0,0.408,0.179,0.408,0.408V53.296z M79.452,88.174    c-0.897,0-1.632-0.734-1.632-1.632c0-0.898,0.734-1.632,1.632-1.632s1.632,0.734,1.632,1.632    C81.084,87.439,80.35,88.174,79.452,88.174z M79.452,23.314c-0.897,0-1.632-0.734-1.632-1.632c0-0.898,0.734-1.632,1.632-1.632    s1.632,0.734,1.632,1.632C81.084,22.579,80.35,23.314,79.452,23.314z"/><path d="M40.357,45.203h7.751c0.457,0,0.816-0.359,0.816-0.816v-7.751c0-0.449-0.359-0.816-0.816-0.816h-7.751    c-0.449,0-0.816,0.367-0.816,0.816v7.751C39.541,44.844,39.908,45.203,40.357,45.203z"/><rect x="28.323" y="54.944" width="3.606" height="4.585"/><circle cx="46.851" cy="57.139" r="2.7"/><circle cx="49.385" cy="83.279" r="1.224"/><circle cx="66.569" cy="80.831" r="1.224"/><path d="M19.819,16.614c-0.319-0.319-0.835-0.319-1.154,0c-0.319,0.319-0.319,0.835,0,1.154l9.456,9.456    c0.159,0.159,0.368,0.239,0.577,0.239c0.209,0,0.417-0.08,0.577-0.239c0.319-0.319,0.319-0.835,0-1.154L19.819,16.614z"/><path d="M19.819,24.159c-0.319-0.319-0.835-0.319-1.154,0c-0.319,0.319-0.319,0.835,0,1.154l9.456,9.456    c0.159,0.159,0.368,0.239,0.577,0.239c0.209,0,0.417-0.08,0.577-0.239c0.319-0.319,0.319-0.835,0-1.154L19.819,24.159z"/><path d="M19.819,31.704c-0.319-0.319-0.835-0.319-1.154,0c-0.319,0.319-0.319,0.835,0,1.154l6.363,6.364    c0.159,0.159,0.368,0.239,0.577,0.239c0.209,0,0.417-0.08,0.577-0.239c0.319-0.319,0.319-0.835,0-1.154L19.819,31.704z"/><path d="M19.819,39.25c-0.319-0.319-0.835-0.319-1.154,0s-0.319,0.835,0,1.154l3.696,3.695c0.159,0.159,0.368,0.239,0.577,0.239    c0.209,0,0.417-0.08,0.577-0.239c0.319-0.319,0.319-0.835,0-1.154L19.819,39.25z"/></g></g><text x="0" y="115" fill="#000000" font-size="5px" font-weight="bold" font-family="'Helvetica Neue', Helvetica, Arial-Unicode, Arial, Sans-serif">Created by AB Designs</text><text x="0" y="120" fill="#000000" font-size="5px" font-weight="bold" font-family="'Helvetica Neue', Helvetica, Arial-Unicode, Arial, Sans-serif">from the Noun Project</text></svg>