<svg xmlns="http://www.w3.org/2000/svg" version="1.1" viewBox="-5.0 -10.0 110.0 135.0">
 <path d="m92.188 62.656c-0.36719-5.043-2.5938-9.7695-6.25-13.266-0.09375-0.09375-10-8.5781-14.844-14.062s-12.5-15.516-12.5-15.625c-11.531-13.125-26.188-8.25-34.781 0.60938l-2.5312-2.2031c-1.5508-1.3594-3.6094-1.9883-5.6562-1.7188-1.1875 0.13281-2.375-0.24219-3.2695-1.0352-0.89062-0.79297-1.4062-1.9258-1.418-3.1211v-3.7031h-3.125v3.7031c0.019531 2.0742 0.92188 4.0391 2.4844 5.4023s3.6289 1.9961 5.6875 1.7383c2.2188-0.5 4.1875 1.8125 5.7031 3.125-8.8281 8.5625-14.625 23.594-1.2188 35.312 0.09375 0.078125 10.141 7.6875 15.625 12.5s13.953 14.75 14.062 14.859c3.5 3.6133 8.2148 5.8047 13.234 6.1406 14.469 1.1562 29.812-14.344 28.797-28.656zm-10.641 18.188c-17.484 15.281-28.688 2.9688-29.156 2.4531-4.5117-5.2812-9.2852-10.332-14.312-15.125-5.5625-4.9531-15.625-12.609-15.625-12.609-4.6875-4.2969-6.9688-9.0312-6.9062-14.062 0.14062-7.8125 6.0156-14.547 8.4062-16.969l3.9531 3.9531c-7.0938 6.875-11.594 19.219-0.85938 28.516 0.078125 0 8.0312 6.1094 12.375 9.9531s11.047 11.688 11.141 11.781c6.25 6.7812 17.688 6.9688 27.031-1.75 8.8594-9.375 8.7188-20.891 1.875-27.203-4.1055-3.5039-8.0312-7.2109-11.766-11.109-9.375-10.375-11.766-18.641-23.438-18.984-6.6094 0.125-11.938 4.4688-14.219 6.6562l-3.9375-3.9375c7.5-7.6406 20.031-12.312 30.188-0.75 0.64062 0.84375 7.9062 10.391 12.656 15.734 4.7891 5.0195 9.832 9.793 15.109 14.297 0.45312 0.45312 12.812 11.719-2.5156 29.156zm-46.75-45.422c-1.7461 2.4883-1.4492 5.8711 0.70312 8.0156l5.125 5c2.1406 2.1484 5.5117 2.4531 8 0.71875l10.328 10.312 1.9844-2.1094-10.266-10.328c1.7266-2.4688 1.4453-5.8203-0.67188-7.9688l-5.0469-5.0156c-2.1445-2.1445-5.5156-2.4414-8-0.70312l-4.8281-4.8281c2-1.9219 6.8594-5.8125 12.359-5.7812 10.219 0.5625 12.5 9.0156 20.922 17.969 3.8047 4.0117 7.8281 7.8164 12.047 11.391 1.0781 1.0586 1.9688 2.2969 2.625 3.6562-2.6523 3.3008-6.2578 5.7031-10.328 6.875-6.4844 1.8906-12.312 6.5-17.344 13.719-3.4453-4.0547-7.0938-7.9297-10.938-11.609-4.4375-3.9375-12.25-9.8438-12.5-10.016-9.1719-8-4.9062-18.188 1.0625-24.062-0.0625-0.078125 4.7656 4.7656 4.7656 4.7656z"/>
<text x="0.0" y="117.5" font-size="5.0" font-weight="bold" font-family="Arbeit Regular, Helvetica, Arial-Unicode, Arial, Sans-serif" fill="#000000">Created by Ricky Dermawan</text><text x="0.0" y="122.5" font-size="5.0" font-weight="bold" font-family="Arbeit Regular, Helvetica, Arial-Unicode, Arial, Sans-serif" fill="#000000">from Noun Project</text></svg>