<svg xmlns="http://www.w3.org/2000/svg" version="1.1" viewBox="-5.0 -10.0 110.0 135.0">
 <path d="m31.648 30.25v-4.9375c-4.2695 0.23438-8.1484 1.9336-11.141 4.6172l3.4883 3.4883c2.0898-1.8008 4.7422-2.9531 7.6523-3.1719z"/>
 <path d="m39.887 34.84c-1.7188-1.4414-3.875-2.3789-6.2383-2.5898v5.9688c0.72656 0.13672 1.4102 0.42188 2.0195 0.83594l4.2148-4.2148z"/>
 <path d="m89.449 12.391h-78.898l-3.7344 5.8984h86.367z"/>
 <path d="m31.648 38.219v-5.9688c-2.3633 0.20703-4.5195 1.1445-6.2383 2.5859l4.2188 4.2188c0.60938-0.41797 1.2969-0.69922 2.0195-0.83594z"/>
 <path d="m22.582 34.836-3.4883-3.4883c-2.6836 2.9922-4.3867 6.8711-4.6211 11.145h4.9375c0.21875-2.9141 1.375-5.5625 3.1719-7.6523z"/>
 <path d="m21.41 44.488c0.21094 2.3633 1.1445 4.5156 2.5898 6.2383l4.2188-4.2188c-0.41797-0.60937-0.69922-1.293-0.83594-2.0195z"/>
 <path d="m19.41 44.488h-4.9375c0.23438 4.2695 1.9375 8.1484 4.6211 11.141l3.4883-3.4883c-1.8008-2.0898-2.957-4.7383-3.1758-7.6523z"/>
 <path d="m41.301 36.254-4.2148 4.2148c0.41797 0.60938 0.69922 1.293 0.83594 2.0195h5.9609c-0.20703-2.3633-1.1445-4.5156-2.582-6.2383z"/>
 <path d="m79.004 76.703v-22.98h-1.6641v4.7188c0.003906 0.011719 0.003906 0.023438 0 0.035156v9.8555c0.003906 0.011719 0.003906 0.023438 0 0.035157v7.6602c0 2.3906-1.9453 4.332-4.332 4.332h-36.98v1.6328h37.691c2.9141 0 5.2852-2.3711 5.2852-5.2852z"/>
 <path d="m81.004 76.703c0 4.0195-3.2695 7.2852-7.2852 7.2852h-37.691v1.5977h38.363c4.5117 0 8.1797-3.668 8.1797-8.1797v-23.684h-1.5625v22.98z"/>
 <path d="m30.316 87.609h3.707v-9.2344h-3.707z"/>
 <path d="m44.789 29.938c-2.9922-2.6836-6.8672-4.3867-11.141-4.6211v4.9375c2.9102 0.21875 5.5625 1.375 7.6484 3.1758z"/>
 <path d="m43.883 44.488h-5.9609c-0.13672 0.72656-0.42188 1.4102-0.83594 2.0195l4.2148 4.2148c1.4414-1.7188 2.375-3.875 2.5859-6.2344z"/>
 <path d="m33.648 48.762v5.9648c2.3594-0.21094 4.5156-1.1445 6.2344-2.5859l-4.2148-4.2148c-0.60938 0.41797-1.2969 0.69922-2.0195 0.83594z"/>
 <path d="m84.566 57.461h1.4727v-7.8086h-12.078v7.8086h1.375v-4.7344c0-0.55469 0.44922-1 1-1h7.2305c0.55078 0 1 0.44531 1 1z"/>
 <path d="m23.996 36.25c-1.4414 1.7227-2.3789 3.8789-2.5859 6.2383h5.9688c0.13672-0.72656 0.42188-1.4102 0.83594-2.0195z"/>
 <path d="m64.562 49.562h2.5078v7.9961h-2.5078z"/>
 <path d="m64.562 29.633h9.3555v8h-9.3555z"/>
 <path d="m20.512 57.043c2.9922 2.6836 6.8711 4.3867 11.141 4.6172v-4.9375c-2.9102-0.21875-5.5625-1.3711-7.6523-3.1719l-3.4883 3.4883z"/>
 <path d="m6 20.293v47.059h69.336v-7.8906h-2.375c-0.55078 0-1-0.44531-1-1v-9.8086c0-0.55469 0.44922-1 1-1h14.078c0.55078 0 1 0.44531 1 1v9.8086c0 0.55469-0.44922 1-1 1h-2.4727v7.8906h9.4336v-47.059zm3.6797 4.0469c0.050781-0.12891 0.12891-0.23828 0.21875-0.32812 0.039062-0.050781 0.10156-0.089844 0.14844-0.12109 0.050781-0.039063 0.10938-0.070313 0.17188-0.10156 0.058594-0.019531 0.12891-0.039062 0.19141-0.050781 0.19922-0.050781 0.39062-0.019531 0.57812 0.050781 0.12109 0.058594 0.23047 0.12891 0.32031 0.21875 0.089844 0.089844 0.17188 0.19922 0.21875 0.32813 0.53516 1.8242-2.4023 1.8008-1.8516 0zm0.92969 39.691c-0.96484 0.039062-1.375-1.3242-0.55859-1.8281 0.050781-0.039063 0.10938-0.070313 0.17188-0.089844 0.058594-0.027343 0.12891-0.050781 0.19141-0.058593 0.12891-0.03125 0.26172-0.03125 0.39063 0 0.058593 0.011718 0.12891 0.03125 0.19141 0.058593 0.058594 0.019531 0.12109 0.050781 0.17188 0.089844 0.8125 0.5 0.40234 1.8633-0.55078 1.8281zm1.8125-20.543c0-11.152 9.0703-20.223 20.223-20.223 11.152 0 20.223 9.0703 20.223 20.223-1.1055 26.82-39.336 26.828-40.449 0zm41.348-19.148c0.10156-0.26562 0.28125-0.43359 0.53906-0.55078 0.35938-0.14844 0.80859-0.0625 1.0898 0.21875 0.089843 0.089844 0.16016 0.19922 0.21094 0.32813 0.16406 0.36719 0.058594 0.80078-0.21094 1.0898-0.75781 0.75391-2.0703-0.10156-1.6289-1.0898zm0.21094 39.398c-0.49219-0.47656-0.33203-1.3945 0.32812-1.6328 0.23828-0.10156 0.51953-0.10156 0.76172 0 0.12109 0.050781 0.23047 0.12109 0.32813 0.21094 0.89844 0.95703-0.46484 2.332-1.4219 1.4219zm15.09-5.1797c0 0.55469-0.44922 1-1 1h-4.5078c-0.55078 0-1-0.44531-1-1v-9.9961c0-0.55469 0.44922-1 1-1h4.5078c0.55078 0 1 0.44531 1 1zm18.203-19.926c0 0.55469-0.44922 1-1 1h-22.715c-0.55078 0-1-0.44531-1-1v-10c0-0.55469 0.44922-1 1-1h22.715c0.55078 0 1 0.44531 1 1z"/>
 <path d="m42.715 34.84c1.7969 2.0898 2.9531 4.7383 3.1719 7.6484h4.9375c-0.23438-4.2695-1.9336-8.1445-4.6172-11.141z"/>
 <path d="m75.918 29.633h9.3555v8h-9.3555z"/>
 <path d="m25.41 52.141c1.7227 1.4414 3.875 2.375 6.2383 2.5859v-5.9648c-0.72656-0.13672-1.4102-0.42188-2.0195-0.83594l-4.2188 4.2188z"/>
 <path d="m33.648 56.727v4.9375c4.2695-0.23437 8.1445-1.9375 11.137-4.6211l-3.4883-3.4883c-2.0898 1.7969-4.7383 2.9531-7.6484 3.1719z"/>
 <path d="m35.031 41.105c-3.2188-3.0664-7.832 1.5469-4.7656 4.7656 3.2695 2.9844 7.8203-1.4961 4.7656-4.7656z"/>
 <path d="m42.715 52.137 3.4883 3.4883c2.6836-2.9922 4.3867-6.8672 4.6172-11.137h-4.9375c-0.21875 2.9102-1.375 5.5586-3.1719 7.6484z"/>
<text x="0.0" y="117.5" font-size="5.0" font-weight="bold" font-family="Arbeit Regular, Helvetica, Arial-Unicode, Arial, Sans-serif" fill="#000000">Created by Fahrul Oktaviana</text><text x="0.0" y="122.5" font-size="5.0" font-weight="bold" font-family="Arbeit Regular, Helvetica, Arial-Unicode, Arial, Sans-serif" fill="#000000">from Noun Project</text></svg>