<svg xmlns="http://www.w3.org/2000/svg" data-name="Layer 1" viewBox="0 0 512 640" x="0px" y="0px"><path d="M303.937,351.54688a180.09987,180.09987,0,0,1-99.44726-1.03418l47.522-83.92188a14.74809,14.74809,0,0,0-23.62988-17.314l-38.2959,41.1538a3.50017,3.50017,0,1,0,5.125,4.76856l38.2959-41.15381a7.74756,7.74756,0,0,1,12.41308,9.09619L186.1123,368.75977a22.02668,22.02668,0,1,1-35.292-25.85938l31.54883-33.896a6.491,6.491,0,0,0-1.29785-9.92431A141.512,141.512,0,1,1,397.43945,183.2373C395.22461,259.42676,331.99316,320.52,255.957,320.52c-.79687,0-1.59863-.00684-2.39941-.02051a143.04628,143.04628,0,0,1-16.19532-1.19531,3.50018,3.50018,0,0,0-.91406,6.94043,150.0683,150.0683,0,0,0,16.99219,1.25391c.84375.01416,1.67578.02148,2.51758.02148,79.78808-.00635,146.15429-64.123,148.47754-144.07959A148.50036,148.50036,0,1,0,176.8291,304.68213l-21.09326,22.66308a179.57352,179.57352,0,0,1-22.98706-18.48535C124.55273,301.07568,111,307.01367,111,318.31689v71.50147a37.02163,37.02163,0,0,0,37.02148,37.02148H307.72754A14.01246,14.01246,0,0,0,321.74,412.82715V365.03027A14.01853,14.01853,0,0,0,303.937,351.54688Z"/><path d="M256,234.6665A55.64648,55.64648,0,1,0,200.35352,179.02,55.64652,55.64652,0,0,0,256,234.6665Zm0-81.04834A25.40186,25.40186,0,1,1,230.59814,179.02,25.40187,25.40187,0,0,1,256,153.61816Z"/><path d="M121.08691,64.76562a17.12256,17.12256,0,1,0-17.123-17.12255A17.14153,17.14153,0,0,0,121.08691,64.76562Zm0-27.24511a10.11774,10.11774,0,0,1,8.4358,4.54077,6.99746,6.99746,0,0,0-2.93458-.34009q-.44274.044-.89062.11743a13.70419,13.70419,0,0,0-10.97339,10.15454q-.02965.11867-.05688.23682a7.22273,7.22273,0,0,0,.00048,3.2334,10.11783,10.11783,0,0,1,6.41919-17.94287Z"/><path d="M390.91309,30.52051a17.12256,17.12256,0,1,0,17.123,17.12256A17.14154,17.14154,0,0,0,390.91309,30.52051ZM396.415,41.72119q-.44275.044-.89063.11743A13.70418,13.70418,0,0,0,384.551,51.99316q-.02967.11867-.05689.23682a7.22287,7.22287,0,0,0,.00049,3.2334,10.11768,10.11768,0,1,1,14.85547-13.4021A7.0002,7.0002,0,0,0,396.415,41.72119Z"/><path d="M121.08691,447.23438A17.12256,17.12256,0,1,0,138.209,464.35693,17.14237,17.14237,0,0,0,121.08691,447.23438Zm5.50122,11.20068q-.44274.04395-.89062.11767a13.70357,13.70357,0,0,0-10.97339,10.1543q-.02965.11865-.05688.23682a7.22271,7.22271,0,0,0,.00048,3.2334,10.11759,10.11759,0,1,1,14.855-13.40235A7.00147,7.00147,0,0,0,126.58813,458.43506Z"/><path d="M390.91309,447.23438a17.12256,17.12256,0,1,0,17.123,17.12255A17.14153,17.14153,0,0,0,390.91309,447.23438Zm5.50195,11.20068q-.44275.04395-.89063.11767A13.70356,13.70356,0,0,0,384.551,468.707q-.02967.11865-.05689.23682a7.22286,7.22286,0,0,0,.00049,3.2334,10.11764,10.11764,0,1,1,14.85547-13.40186A6.99636,6.99636,0,0,0,396.415,458.43506Z"/><path d="M399.86719,12.5H112.13281A30.8326,30.8326,0,0,0,81.335,43.29834V468.70166A30.8326,30.8326,0,0,0,112.13281,499.5H399.86719A30.8326,30.8326,0,0,0,430.665,468.70166V43.29834A30.8326,30.8326,0,0,0,399.86719,12.5ZM423.665,468.70166A23.825,23.825,0,0,1,399.86719,492.5H112.13281A23.825,23.825,0,0,1,88.335,468.70166V43.29834A23.825,23.825,0,0,1,112.13281,19.5H399.86719A23.825,23.825,0,0,1,423.665,43.29834Z"/><path d="M252.5,290.15674a3.50017,3.50017,0,0,0,3.5,3.5A114.7665,114.7665,0,0,0,370.63672,179.02a3.5,3.5,0,0,0-7,0A107.75833,107.75833,0,0,1,256,286.65674,3.50017,3.50017,0,0,0,252.5,290.15674Z"/><path d="M259.5,67.8833a3.50017,3.50017,0,0,0-3.5-3.5A114.7665,114.7665,0,0,0,141.36328,179.02a3.5,3.5,0,0,0,7,0A107.75833,107.75833,0,0,1,256,71.3833,3.50017,3.50017,0,0,0,259.5,67.8833Z"/><path d="M404.53613,349.49854H334.89648a3.5,3.5,0,0,0,0,7h69.63965a3.5,3.5,0,0,0,0-7Z"/><path d="M404.53613,374.1123H334.89648a3.5,3.5,0,0,0,0,7h69.63965a3.5,3.5,0,0,0,0-7Z"/><path d="M404.53613,398.72607H334.89648a3.5,3.5,0,0,0,0,7h69.63965a3.5,3.5,0,0,0,0-7Z"/><path d="M404.53613,423.33984H334.89648a3.5,3.5,0,0,0,0,7h69.63965a3.5,3.5,0,1,0,0-7Z"/><text x="0" y="527" fill="#000000" font-size="5px" font-weight="bold" font-family="'Helvetica Neue', Helvetica, Arial-Unicode, Arial, Sans-serif">Created by iconfield</text><text x="0" y="532" fill="#000000" font-size="5px" font-weight="bold" font-family="'Helvetica Neue', Helvetica, Arial-Unicode, Arial, Sans-serif">from the Noun Project</text></svg>