<svg xmlns="http://www.w3.org/2000/svg" version="1.1" viewBox="-5.0 -10.0 110.0 135.0">
 <path d="m70.27 0.44922h-40.539c-2.4883 0-4.5039 2.0156-4.5039 4.5039v40.539c0 2.4883 2.0156 4.5039 4.5039 4.5039-2.4883 0-4.5039 2.0156-4.5039 4.5039v40.539c0 2.4883 2.0156 4.5039 4.5039 4.5039h40.539c2.4883 0 4.5039-2.0156 4.5039-4.5039v-40.539c0-2.4883-2.0156-4.5039-4.5039-4.5039 2.4883 0 4.5039-2.0156 4.5039-4.5039v-40.535c0-2.4883-2.0156-4.5039-4.5039-4.5039zm-38.289 54.055c1.2422 0 2.2539 1.0078 2.2539 2.2539 0 1.2422-1.0078 2.2539-2.2539 2.2539-1.2422 0-2.2539-1.0078-2.2539-2.2539 0-1.2422 1.0078-2.2539 2.2539-2.2539zm0 40.539c-1.2422 0-2.2539-1.0078-2.2539-2.2539 0-1.2422 1.0078-2.2539 2.2539-2.2539 1.2422 0 2.2539 1.0078 2.2539 2.2539 0 1.2422-1.0078 2.2539-2.2539 2.2539zm18.02-0.5625c-10.867 0-19.707-8.8398-19.707-19.707 0-10.867 8.8398-19.707 19.707-19.707s19.707 8.8398 19.707 19.707c0 10.867-8.8398 19.707-19.707 19.707zm18.02 0.5625c-1.2422 0-2.2539-1.0078-2.2539-2.2539 0-1.2422 1.0078-2.2539 2.2539-2.2539 1.2422 0 2.2539 1.0078 2.2539 2.2539 0 1.2422-1.0078 2.2539-2.2539 2.2539zm0-36.035c-1.2422 0-2.2539-1.0078-2.2539-2.2539 0-1.2422 1.0078-2.2539 2.2539-2.2539 1.2422 0 2.2539 1.0078 2.2539 2.2539 0 1.2422-1.0078 2.2539-2.2539 2.2539zm-18.02-53.488c10.867 0 19.707 8.8398 19.707 19.707 0 10.867-8.8398 19.707-19.707 19.707s-19.707-8.8398-19.707-19.707c0-10.867 8.8398-19.707 19.707-19.707zm-18.02-0.5625c1.2422 0 2.2539 1.0078 2.2539 2.2539 0 1.2422-1.0078 2.2539-2.2539 2.2539-1.2422 0-2.2539-1.0078-2.2539-2.2539 0-1.2422 1.0078-2.2539 2.2539-2.2539zm0 36.035c1.2422 0 2.2539 1.0078 2.2539 2.2539 0 1.2422-1.0078 2.2539-2.2539 2.2539-1.2422 0-2.2539-1.0078-2.2539-2.2539 0-1.2422 1.0078-2.2539 2.2539-2.2539zm36.039 4.5039c-1.2422 0-2.2539-1.0078-2.2539-2.2539 0-1.2422 1.0078-2.2539 2.2539-2.2539 1.2422 0 2.2539 1.0078 2.2539 2.2539 0 1.2422-1.0078 2.2539-2.2539 2.2539zm0-36.035c-1.2422 0-2.2539-1.0078-2.2539-2.2539 0-1.2422 1.0078-2.2539 2.2539-2.2539 1.2422 0 2.2539 1.0078 2.2539 2.2539 0 1.2422-1.0078 2.2539-2.2539 2.2539zm-18.02 32.094c9.0039 0 16.328-7.3242 16.328-16.328 0-9.0039-7.3242-16.328-16.328-16.328s-16.328 7.3242-16.328 16.328c0 9.0039 7.3242 16.328 16.328 16.328zm0-27.027c5.8984 0 10.699 4.8008 10.699 10.699 0 5.8984-4.8008 10.699-10.699 10.699s-10.699-4.8008-10.699-10.699c0-5.8984 4.8008-10.699 10.699-10.699zm0 18.02c4.0352 0 7.3203-3.2852 7.3203-7.3203 0-4.0352-3.2852-7.3203-7.3203-7.3203s-7.3203 3.2852-7.3203 7.3203c0 4.0352 3.2852 7.3203 7.3203 7.3203zm0-9.5742c1.2422 0 2.2539 1.0078 2.2539 2.2539 0 1.2422-1.0078 2.2539-2.2539 2.2539-1.2422 0-2.2539-1.0078-2.2539-2.2539 0-1.2422 1.0078-2.2539 2.2539-2.2539zm-34.25-7.3789c-2.1992 3.1172-3.3633 6.8008-3.3633 10.648 0 3.8477 1.1641 7.5273 3.3633 10.648 0.53516 0.76172 0.35547 1.8164-0.40625 2.3555-0.29688 0.20703-0.63672 0.30859-0.97266 0.30859-0.53125 0-1.0547-0.25-1.3828-0.71484-2.6016-3.6914-3.9805-8.0508-3.9805-12.598 0-4.5469 1.375-8.9023 3.9805-12.598 0.53906-0.76172 1.5898-0.94922 2.3555-0.40625 0.76172 0.53906 0.94531 1.5938 0.40625 2.3555zm-7.3828-5.1641c-3.2656 4.6523-4.9883 10.117-4.9883 15.809 0 5.6914 1.7227 11.156 4.9883 15.809 0.53516 0.76172 0.35156 1.8164-0.41406 2.3516-0.29297 0.20703-0.63281 0.30469-0.96875 0.30469-0.53125 0-1.0547-0.25-1.3867-0.71875-3.6641-5.2188-5.5977-11.355-5.5977-17.746 0-6.3867 1.9336-12.527 5.6016-17.75 0.53516-0.76562 1.5898-0.94922 2.3516-0.41406 0.76172 0.53516 0.94922 1.5898 0.41406 2.3516zm78.645 3.2148c2.6016 3.6914 3.9805 8.0508 3.9805 12.598 0 4.5469-1.375 8.9023-3.9805 12.598-0.32812 0.46484-0.85156 0.71484-1.3828 0.71484-0.33594 0-0.67578-0.097657-0.97266-0.30859-0.76172-0.53906-0.94531-1.5938-0.40625-2.3555 2.1992-3.1172 3.3633-6.8008 3.3633-10.648 0-3.8477-1.1641-7.5273-3.3633-10.648-0.53516-0.76172-0.35547-1.8164 0.40625-2.3555 0.76953-0.53906 1.8203-0.35547 2.3555 0.40625zm4.6211 28.406c3.2656-4.6523 4.9883-10.117 4.9883-15.809 0-5.6914-1.7227-11.156-4.9883-15.809-0.53516-0.76172-0.35156-1.8164 0.41406-2.3516 0.76953-0.53516 1.8203-0.35156 2.3516 0.41406 3.6641 5.2227 5.6016 11.359 5.6016 17.75s-1.9336 12.527-5.6016 17.75c-0.32813 0.46875-0.85156 0.71875-1.3867 0.71875-0.33594 0-0.67188-0.097656-0.96875-0.30469-0.76172-0.53516-0.94922-1.5898-0.41406-2.3516zm-75.883 23.09c-2.1992 3.1172-3.3633 6.8008-3.3633 10.648 0 3.8477 1.1641 7.5273 3.3633 10.648 0.53516 0.76172 0.35547 1.8164-0.40625 2.3555-0.29688 0.20703-0.63672 0.30859-0.97266 0.30859-0.53125 0-1.0547-0.25-1.3828-0.71484-2.6016-3.6914-3.9805-8.0508-3.9805-12.598 0-4.5469 1.375-8.9023 3.9805-12.598 0.53906-0.76172 1.5898-0.94922 2.3555-0.40625 0.76172 0.53906 0.94531 1.5938 0.40625 2.3555zm-7.3828-5.1602c-3.2656 4.6523-4.9883 10.117-4.9883 15.809 0 5.6914 1.7227 11.156 4.9883 15.809 0.53516 0.76172 0.35156 1.8164-0.41406 2.3516-0.29297 0.20703-0.63281 0.30469-0.96875 0.30469-0.53125 0-1.0547-0.25-1.3867-0.71875-3.6641-5.2227-5.6016-11.359-5.6016-17.75s1.9336-12.527 5.6016-17.75c0.53516-0.76562 1.5898-0.94922 2.3516-0.41406s0.94922 1.5898 0.41406 2.3516zm78.645 3.2109c2.6016 3.6914 3.9805 8.0508 3.9805 12.598 0 4.5469-1.375 8.9023-3.9805 12.598-0.32812 0.46484-0.85156 0.71484-1.3828 0.71484-0.33594 0-0.67578-0.097656-0.97266-0.30859-0.76172-0.53906-0.94531-1.5938-0.40625-2.3555 2.1992-3.1172 3.3633-6.8008 3.3633-10.648 0-3.8477-1.1641-7.5273-3.3633-10.648-0.53516-0.76172-0.35547-1.8164 0.40625-2.3555 0.76953-0.53906 1.8203-0.35156 2.3555 0.40625zm7.3867-5.1523c3.6641 5.2227 5.6016 11.359 5.6016 17.75 0 6.3906-1.9336 12.527-5.6016 17.75-0.32813 0.46875-0.85156 0.71875-1.3867 0.71875-0.33594 0-0.67188-0.097656-0.96875-0.30469-0.76172-0.53516-0.94922-1.5898-0.41406-2.3516 3.2656-4.6523 4.9883-10.117 4.9883-15.809 0-5.6914-1.7227-11.156-4.9883-15.809-0.53516-0.76172-0.35156-1.8164 0.41406-2.3516 0.76953-0.53516 1.8203-0.35156 2.3516 0.41406zm-44.398 0.40625c-9.0039 0-16.328 7.3242-16.328 16.328 0 9.0039 7.3242 16.328 16.328 16.328s16.328-7.3242 16.328-16.328c0-9.0039-7.3242-16.328-16.328-16.328zm0 27.027c-5.8984 0-10.699-4.8008-10.699-10.699 0-5.8984 4.8008-10.699 10.699-10.699s10.699 4.8008 10.699 10.699c0 5.8984-4.8008 10.699-10.699 10.699zm0-18.02c-4.0352 0-7.3203 3.2852-7.3203 7.3203 0 4.0352 3.2852 7.3203 7.3203 7.3203s7.3203-3.2852 7.3203-7.3203c0-4.0352-3.2852-7.3203-7.3203-7.3203zm0 9.5742c-1.2422 0-2.2539-1.0078-2.2539-2.2539 0-1.2422 1.0078-2.2539 2.2539-2.2539 1.2422 0 2.2539 1.0078 2.2539 2.2539 0 1.2422-1.0078 2.2539-2.2539 2.2539z"/>
<text x="0.0" y="117.5" font-size="5.0" font-weight="bold" font-family="Arbeit Regular, Helvetica, Arial-Unicode, Arial, Sans-serif" fill="#000000">Created by Iqbal Widianto</text><text x="0.0" y="122.5" font-size="5.0" font-weight="bold" font-family="Arbeit Regular, Helvetica, Arial-Unicode, Arial, Sans-serif" fill="#000000">from Noun Project</text></svg>