<svg xmlns="http://www.w3.org/2000/svg" xmlns:xlink="http://www.w3.org/1999/xlink" version="1.1" x="0px" y="0px" viewBox="0 0 64 80" style="enable-background:new 0 0 64 64;" xml:space="preserve"><g><path d="M58,13H25c-0.5522461,0-1,0.4472656-1,1v44c0,0.5527344,0.4477539,1,1,1h33c0.5522461,0,1-0.4472656,1-1V14   C59,13.4472656,58.5522461,13,58,13z M57,24c-0.5523071,0-1,0.4476929-1,1c0,0.5522461,0.4476929,1,1,1v1   c-1.1030273,0-2-0.8974609-2-2s0.8969727-2,2-2V24z M57,51c-0.5523071,0-1,0.4476929-1,1c0,0.5522461,0.4476929,1,1,1v1   c-1.1030273,0-2-0.8974609-2-2s0.8969727-2,2-2V51z M30,15h1v1h-1V15z M33,15h1v1h-1V15z M36,15h1v1h-1V15z M39,15h1v1h-1V15z    M43,15h1v1h-1V15z M46,15h1v1h-1V15z M49,15h1v1h-1V15z M28,15v2c0,0.5499878,0.4500122,1,1,1h22c0.5499878,0,1-0.4500122,1-1v-2   h5v4H26v-4H28z M26,53c0.5523071,0,1-0.4477539,1-1c0-0.5523071-0.4476929-1-1-1v-1c1.1030273,0,2,0.8974609,2,2s-0.8969727,2-2,2   V53z M26,26c0.5523071,0,1-0.4477539,1-1c0-0.5523071-0.4476929-1-1-1v-1c1.1030273,0,2,0.8974609,2,2s-0.8969727,2-2,2V26z M57,57   H26v-1c2.2055664,0,4-1.7939453,4-4s-1.7944336-4-4-4V29c2.2055664,0,4-1.7939453,4-4s-1.7944336-4-4-4h31   c-2.2055664,0-4,1.7939453-4,4s1.7944336,4,4,4v19c-2.2055664,0-4,1.7939453-4,4s1.7944336,4,4,4V57z"/><circle cx="10" cy="13" r="1"/><circle cx="13" cy="13" r="1"/><circle cx="16" cy="13" r="1"/><circle cx="14" cy="27" r="1"/><circle cx="17" cy="27" r="1"/><path d="M20,5h-3c-0.5522461,0-1,0.4472656-1,1v2h-1V6c0-0.5527344-0.4477539-1-1-1H6C5.4477539,5,5,5.4472656,5,6v3v49   c0,0.5527344,0.4477539,1,1,1h4.1835938c0.4228516,0,0.800293-0.2666016,0.9418945-0.6650391   C11.4101562,57.5361328,12.1630859,57,13,57s1.5898438,0.5361328,1.8745117,1.3349609   C15.0161133,58.7333984,15.3935547,59,15.8164062,59H20c0.5522461,0,1-0.4472656,1-1V9V6C21,5.4472656,20.5522461,5,20,5z M7,10h12   v42H7V10z M18,7h1v1h-1V7z M13,7v1H7V7H13z M16.4511719,57C15.7451172,55.7802734,14.4345703,55,13,55   s-2.7451172,0.7802734-3.4511719,2H7v-3h12v3H16.4511719z"/><path d="M17,15H9c-0.5522461,0-1,0.4472656-1,1v8c0,0.5527344,0.4477539,1,1,1h8c0.5522461,0,1-0.4472656,1-1v-8   C18,15.4472656,17.5522461,15,17,15z M16,23h-6v-6h6V23z"/><path d="M9,29c-0.5522461,0-1,0.4472656-1,1v19c0,0.5527344,0.4477539,1,1,1s1-0.4472656,1-1V30C10,29.4472656,9.5522461,29,9,29z"/><path d="M17,29h-5c-0.5522461,0-1,0.4472656-1,1v19c0,0.5527344,0.4477539,1,1,1h5c0.5522461,0,1-0.4472656,1-1V30   C18,29.4472656,17.5522461,29,17,29z M16,48h-3V31h3V48z"/><path d="M9,28h2c0.5522461,0,1-0.4472656,1-1s-0.4477539-1-1-1H9c-0.5522461,0-1,0.4472656-1,1S8.4477539,28,9,28z"/><path d="M53,27c0-0.5527344-0.4477539-1-1-1H31c-0.5522461,0-1,0.4472656-1,1v22c0,0.5527344,0.4477539,1,1,1h21   c0.5522461,0,1-0.4472656,1-1V27z M51,48H32V28h19V48z"/><path d="M34,35h15c0.5522461,0,1-0.4472656,1-1v-4c0-0.5527344-0.4477539-1-1-1H34c-0.5522461,0-1,0.4472656-1,1v4   C33,34.5527344,33.4477539,35,34,35z M35,31h13v2H35V31z"/><path d="M35,36c-0.5522461,0-1,0.4472656-1,1v9c0,0.5527344,0.4477539,1,1,1s1-0.4472656,1-1v-9C36,36.4472656,35.5522461,36,35,36   z"/><path d="M38,36c-0.5522461,0-1,0.4472656-1,1v5c0,0.5527344,0.4477539,1,1,1s1-0.4472656,1-1v-5C39,36.4472656,38.5522461,36,38,36   z"/><path d="M38,44c-0.5522461,0-1,0.4472656-1,1v1c0,0.5527344,0.4477539,1,1,1s1-0.4472656,1-1v-1C39,44.4472656,38.5522461,44,38,44   z"/><path d="M41,42c-0.5522461,0-1,0.4472656-1,1v3c0,0.5527344,0.4477539,1,1,1s1-0.4472656,1-1v-3C42,42.4472656,41.5522461,42,41,42   z"/><path d="M41,36c-0.5522461,0-1,0.4472656-1,1v3c0,0.5527344,0.4477539,1,1,1s1-0.4472656,1-1v-3C42,36.4472656,41.5522461,36,41,36   z"/><path d="M49,36h-5c-0.5522461,0-1,0.4472656-1,1v9c0,0.5527344,0.4477539,1,1,1h5c0.5522461,0,1-0.4472656,1-1v-9   C50,36.4472656,49.5522461,36,49,36z M48,45h-3v-7h3V45z"/></g><text x="0" y="79" fill="#000000" font-size="5px" font-weight="bold" font-family="'Helvetica Neue', Helvetica, Arial-Unicode, Arial, Sans-serif">Created by Febrian Hidayat</text><text x="0" y="84" fill="#000000" font-size="5px" font-weight="bold" font-family="'Helvetica Neue', Helvetica, Arial-Unicode, Arial, Sans-serif">from the Noun Project</text></svg>