<svg xmlns="http://www.w3.org/2000/svg" viewBox="0 0 96 120" x="0px" y="0px"><title>UPS</title><g><path d="M.49,81.1A3.86,3.86,0,0,0,4.35,85H47.23a3.86,3.86,0,0,0,3.86-3.86V78.74H.49Z"/><path d="M47.23,1H44.34V15.62a5.86,5.86,0,0,1-5.85,5.86H13.09a5.87,5.87,0,0,1-5.86-5.86V1H4.35A3.86,3.86,0,0,0,.49,4.86V76.74h50.6V4.86A3.86,3.86,0,0,0,47.23,1ZM11.81,70.36a1,1,0,0,1-2,0V37a1,1,0,0,1,2,0Zm7.49,0a1,1,0,0,1-2,0V37a1,1,0,0,1,2,0Zm7.49,0a1,1,0,0,1-2,0V37a1,1,0,0,1,2,0Zm7.48,0a1,1,0,0,1-2,0V37a1,1,0,0,1,2,0Zm7.49,0a1,1,0,0,1-2,0V37a1,1,0,0,1,2,0Z"/><path d="M75.84,48.79V18a7.76,7.76,0,0,0-15.52,0V63.21a4.45,4.45,0,0,1-4.45,4.45H53.09v4h2.79a8.38,8.38,0,0,0,8.38-8.38V18a3.82,3.82,0,0,1,7.64,0V48.81a8.37,8.37,0,0,0,8.37,8.37h1.61V53.24H80.29A4.45,4.45,0,0,1,75.84,48.79Z"/><path d="M13.09,19.48H38.48a3.86,3.86,0,0,0,3.86-3.86V1H9.23V15.62A3.86,3.86,0,0,0,13.09,19.48ZM33.27,3.9a6.34,6.34,0,1,1-6.33,6.34A6.35,6.35,0,0,1,33.27,3.9Zm-11.42,1h2.89a1,1,0,0,1,0,2H21.85a1,1,0,0,1,0-2Zm-8.17,0h2.89a1,1,0,0,1,0,2H13.68a1,1,0,0,1,0-2Z"/><path d="M33.27,14.58a4.34,4.34,0,1,0-4.33-4.34A4.34,4.34,0,0,0,33.27,14.58Z"/><path d="M5.83,91.36a3.64,3.64,0,0,0,7.28,0V87H5.83Z"/><path d="M38.47,91.36a3.64,3.64,0,1,0,7.27,0V87H38.47Z"/><path d="M94.51,57H89.59V53.42h4.92a1,1,0,0,0,0-2H89.59V49H86.75a2.87,2.87,0,0,0-2.87,2.86v6.76a2.87,2.87,0,0,0,2.87,2.86h2.84V59h4.92a1,1,0,0,0,0-2Z"/></g><text x="0" y="111" fill="#000000" font-size="5px" font-weight="bold" font-family="'Helvetica Neue', Helvetica, Arial-Unicode, Arial, Sans-serif">Created by tezar tantular</text><text x="0" y="116" fill="#000000" font-size="5px" font-weight="bold" font-family="'Helvetica Neue', Helvetica, Arial-Unicode, Arial, Sans-serif">from the Noun Project</text></svg>